<svg width="200" height="200" viewBox="0 0 200 200" fill="none" xmlns="http://www.w3.org/2000/svg">
<path d="M77.46 136.576C77.46 136.576 66.084 144.304 65.46 162.344C65.252 168.396 68.224 187.664 68.224 187.664L134.756 187.932L122.312 136.288L101.38 131.488L77.46 136.576Z" fill="#C67875"/>
<path d="M102.876 149.968L93.8121 187.78L116.468 187.932L102.876 149.968Z" fill="#263238"/>
<path d="M102.532 141.78C102.604 142.188 102.644 142.602 102.652 143.016C102.704 143.848 102.768 144.872 102.84 146.008C102.912 147.144 102.952 148.236 102.968 149C102.995 149.415 102.986 149.831 102.94 150.244C102.869 149.836 102.829 149.422 102.82 149.008C102.768 148.18 102.704 147.152 102.632 146.02C102.56 144.888 102.52 143.792 102.508 143.024C102.479 142.609 102.487 142.193 102.532 141.78Z" fill="#263238"/>
<path d="M106.636 145.948C106.636 145.968 106.488 146 106.236 146.14C105.906 146.338 105.643 146.631 105.48 146.98C105.354 147.231 105.296 147.51 105.31 147.79C105.324 148.071 105.41 148.343 105.56 148.58C105.732 148.877 105.99 149.115 106.3 149.263C106.61 149.41 106.957 149.46 107.296 149.406C107.635 149.352 107.95 149.196 108.198 148.959C108.447 148.722 108.618 148.416 108.688 148.08C108.759 147.811 108.759 147.529 108.689 147.26C108.619 146.991 108.481 146.744 108.288 146.544C108.026 146.262 107.684 146.065 107.308 145.98C107.044 145.92 106.908 145.936 106.884 145.916C106.86 145.896 106.924 145.916 106.996 145.892C107.105 145.876 107.215 145.876 107.324 145.892C107.729 145.951 108.104 146.141 108.392 146.432C108.595 146.632 108.751 146.876 108.848 147.144C108.956 147.458 108.971 147.797 108.892 148.12C108.814 148.494 108.624 148.836 108.348 149.1C108.071 149.364 107.72 149.537 107.343 149.597C106.965 149.657 106.578 149.601 106.233 149.436C105.888 149.27 105.602 149.004 105.412 148.672C105.238 148.39 105.148 148.064 105.152 147.732C105.164 147.453 105.236 147.18 105.364 146.932C105.547 146.565 105.845 146.267 106.212 146.084C106.309 146.033 106.413 145.997 106.52 145.976C106.596 145.944 106.632 145.94 106.636 145.948Z" fill="#263238"/>
<path d="M113.888 166.592C113.888 166.592 113.74 166.648 113.488 166.784C113.159 166.983 112.897 167.275 112.736 167.624C112.61 167.875 112.552 168.154 112.566 168.435C112.58 168.715 112.666 168.987 112.816 169.224C112.988 169.521 113.246 169.759 113.556 169.907C113.866 170.054 114.213 170.104 114.552 170.05C114.891 169.996 115.205 169.84 115.454 169.603C115.703 169.366 115.873 169.06 115.944 168.724C116.014 168.455 116.014 168.173 115.944 167.904C115.874 167.635 115.737 167.388 115.544 167.188C115.283 166.906 114.943 166.71 114.568 166.624C114.3 166.564 114.144 166.58 114.144 166.56C114.179 166.544 114.217 166.536 114.256 166.536C114.364 166.523 114.472 166.523 114.58 166.536C114.987 166.596 115.363 166.787 115.652 167.08C115.855 167.278 116.009 167.521 116.104 167.788C116.215 168.102 116.231 168.442 116.148 168.764C116.073 169.14 115.885 169.484 115.609 169.75C115.332 170.016 114.981 170.191 114.602 170.251C114.224 170.311 113.836 170.254 113.49 170.086C113.145 169.919 112.86 169.65 112.672 169.316C112.494 169.035 112.404 168.708 112.412 168.376C112.422 168.097 112.494 167.823 112.624 167.576C112.807 167.209 113.105 166.911 113.472 166.728C113.569 166.679 113.673 166.642 113.78 166.62C113.815 166.606 113.851 166.596 113.888 166.592Z" fill="#263238"/>
<path d="M90.3641 151.6C90.3224 151.664 90.2742 151.723 90.2201 151.776C90.1241 151.888 89.9801 152.052 89.7841 152.256C89.2231 152.829 88.6244 153.363 87.9921 153.856C85.8865 155.47 83.4582 156.612 80.8721 157.204C79.4523 157.545 77.9883 157.663 76.5321 157.556C75.3312 157.469 74.1772 157.054 73.1961 156.356C72.5409 155.877 72.0145 155.244 71.6641 154.512C71.5761 154.313 71.5039 154.107 71.4481 153.896C71.4255 153.823 71.4134 153.748 71.4121 153.672C71.4321 153.672 71.4921 153.976 71.7401 154.472C72.1075 155.172 72.6369 155.774 73.2841 156.228C74.2508 156.893 75.3778 157.286 76.5481 157.368C77.9851 157.459 79.4277 157.335 80.8281 157C83.3873 156.413 85.7968 155.302 87.9041 153.736C88.5389 153.26 89.1465 152.748 89.7241 152.204L90.1921 151.752C90.3001 151.644 90.3561 151.6 90.3641 151.6Z" fill="#263238"/>
<path d="M90.3641 155.344C90.3224 155.408 90.2742 155.467 90.2201 155.52C90.1241 155.632 89.9801 155.8 89.7841 156.004C87.3513 158.475 84.2566 160.19 80.8721 160.944C79.4525 161.286 77.9885 161.406 76.5321 161.3C75.3316 161.211 74.178 160.796 73.1961 160.1C72.5403 159.624 72.0138 158.991 71.6641 158.26C71.5754 158.06 71.5031 157.852 71.4481 157.64C71.4251 157.568 71.413 157.492 71.4121 157.416C71.4321 157.416 71.4921 157.72 71.7401 158.216C72.1072 158.917 72.6366 159.521 73.2841 159.976C74.2512 160.639 75.3782 161.032 76.5481 161.112C77.9852 161.205 79.4281 161.081 80.8281 160.744C83.3863 160.157 85.7955 159.047 87.9041 157.484C88.5391 157.007 89.1468 156.494 89.7241 155.948L90.1921 155.496C90.2433 155.439 90.301 155.388 90.3641 155.344Z" fill="#263238"/>
<path d="M90.952 154.212C90.9664 154.264 90.9758 154.318 90.98 154.372C90.98 154.488 91.008 154.648 91.032 154.848C91.08 155.28 91.148 155.896 91.232 156.684C91.4 158.284 91.72 160.576 91.864 163.444C91.9462 165.008 91.9128 166.577 91.764 168.136C91.6002 169.932 91.1966 171.699 90.564 173.388C89.8666 175.267 88.7614 176.968 87.328 178.368C86.5672 179.105 85.7117 179.737 84.784 180.248C83.8243 180.771 82.7873 181.137 81.712 181.332C79.5678 181.68 77.3692 181.273 75.492 180.18C73.7414 179.188 72.2662 177.775 71.2 176.068C70.26 174.526 69.584 172.837 69.2 171.072C68.8582 169.537 68.6732 167.972 68.648 166.4C68.6395 164.134 68.8 161.87 69.128 159.628C69.244 158.828 69.332 158.228 69.392 157.8C69.424 157.6 69.452 157.444 69.468 157.324C69.4754 157.27 69.4875 157.216 69.504 157.164C69.5093 157.219 69.5093 157.273 69.504 157.328C69.504 157.448 69.472 157.604 69.448 157.804C69.396 158.236 69.32 158.852 69.22 159.636C68.9276 161.877 68.794 164.136 68.82 166.396C68.8537 167.954 69.044 169.504 69.388 171.024C69.7782 172.766 70.454 174.431 71.388 175.952C72.4329 177.631 73.8808 179.023 75.6 180C77.4363 181.069 79.587 181.466 81.684 181.124C82.7375 180.936 83.7535 180.578 84.692 180.064C85.6048 179.563 86.4468 178.943 87.196 178.22C88.6111 176.843 89.7039 175.169 90.396 173.32C91.0251 171.648 91.4286 169.899 91.596 168.12C91.7522 166.569 91.7936 165.009 91.72 163.452C91.596 160.592 91.32 158.288 91.156 156.692C91.076 155.892 91.024 155.272 90.992 154.852C90.992 154.652 90.968 154.492 90.96 154.372C90.952 154.252 90.952 154.212 90.952 154.212Z" fill="#263238"/>
<g opacity="0.2">
<path opacity="0.2" d="M70.136 174.024C70.856 176.464 71.164 177.096 72.512 179.044C73.7568 180.89 75.5785 182.271 77.692 182.972C79.203 183.494 80.8222 183.62 82.3959 183.34C83.9696 183.06 85.4457 182.383 86.684 181.372C89.128 179.328 89.992 176.172 90.416 174.032C89.352 175.464 88.22 177.5 86.88 178.68C85.54 179.86 83.768 180.892 82 181.2C79.6 181.6 76.74 180.88 74.688 179.576C72.636 178.272 71.396 175.936 70.124 174.028" fill="black"/>
</g>
<g opacity="0.2">
<path opacity="0.2" d="M71.8481 158.508C72.3044 159.525 73.0012 160.416 73.8786 161.104C74.7559 161.792 75.7875 162.256 76.8841 162.456C79.0481 162.856 81.8521 162.172 83.2041 160.14C78.4441 161.812 73.7121 161.852 71.8481 158.508Z" fill="black"/>
</g>
<path d="M110.964 152.608C110.862 152.626 110.758 152.626 110.656 152.608C110.385 152.571 110.118 152.512 109.856 152.432C108.073 151.903 106.545 150.743 105.556 149.168C105.405 148.933 105.272 148.687 105.156 148.432C105.08 148.248 105.044 148.148 105.06 148.14C105.076 148.132 105.276 148.516 105.668 149.088C106.184 149.825 106.81 150.48 107.524 151.028C108.243 151.569 109.042 151.996 109.892 152.292C110.544 152.496 110.968 152.572 110.964 152.608Z" fill="#263238"/>
<g opacity="0.2">
<path opacity="0.2" d="M105.428 148.4C105.92 150.072 107.776 151.632 109.428 152.18C109.751 152.3 110.096 152.351 110.44 152.328C110.612 152.316 110.779 152.267 110.93 152.183C111.081 152.099 111.211 151.984 111.312 151.844C111.66 151.312 111.36 150.556 110.848 150.18C110.303 149.848 109.696 149.631 109.064 149.544C107.788 149.248 106.636 149.892 105.58 148.82" fill="black"/>
</g>
<g opacity="0.2">
<path opacity="0.2" d="M70.0521 145.304C73.0361 147.912 77.2521 148.024 81.0481 146.904C84.8441 145.784 88.1521 143.676 91.3761 141.372C87.8601 142.072 84.8601 143.676 81.3121 144.2C77.9241 144.7 74.4001 144.752 71.0681 143.62" fill="black"/>
</g>
<path d="M127.276 185.368C127.254 185.387 127.228 185.402 127.2 185.412C127.124 185.453 127.045 185.489 126.964 185.52C126.653 185.646 126.326 185.726 125.992 185.76C124.755 185.862 123.52 185.532 122.5 184.824C121.172 183.98 119.964 182.56 118.672 180.984C117.286 179.254 116.041 177.416 114.948 175.488C112.965 171.98 111.447 168.228 110.432 164.328C110.032 162.832 109.8 161.608 109.652 160.756C109.588 160.356 109.536 160.016 109.496 159.776C109.476 159.662 109.463 159.547 109.456 159.432C109.495 159.541 109.523 159.654 109.54 159.768L109.732 160.74C109.904 161.584 110.172 162.804 110.572 164.288C111.626 168.161 113.156 171.888 115.128 175.384C116.217 177.303 117.453 179.135 118.824 180.864C120.1 182.44 121.292 183.86 122.58 184.7C123.575 185.406 124.782 185.752 126 185.68C126.438 185.634 126.867 185.529 127.276 185.368Z" fill="#263238"/>
<g opacity="0.2">
<path opacity="0.2" d="M112.892 170.608C112.892 170.608 118.796 178.032 123.104 179.852C124.564 180.472 126.172 180.976 127.168 182.208C127.417 182.49 127.601 182.823 127.708 183.184C127.816 183.544 127.843 183.924 127.788 184.296C127.771 184.384 127.745 184.47 127.708 184.552C127.088 186.132 124.108 185.912 122.744 184.912C122.148 184.476 122.5 184.756 122.02 184.396C120.64 183.356 113.252 174.8 112.892 170.608Z" fill="black"/>
</g>
<path d="M86.8281 70.408L90.5961 69.66L109.232 69.88L118.7 71.96L122.312 124.832L80.4521 126.788L86.8281 70.408Z" fill="#E0E0E0"/>
<path d="M113.936 122.4L114.828 98.352L113.344 70.468C119.232 71.984 127.284 73.668 131.744 78.752C134.636 82.052 137.472 86.272 138.544 93.068C139.776 101.068 141.4 116.368 142.416 124.928" fill="#C67875"/>
<path d="M119.856 118.456L90.9161 123.156L89.8921 105.284L88.2921 69.952C79.8921 70.296 70.3321 77.236 67.4641 82.644C65.4641 86.396 63.7881 90.756 63.2641 94.976C62.2601 102.976 60.5601 116.684 59.5441 125.248C59.2368 127.851 59.5132 130.489 60.3531 132.972C61.1931 135.454 62.5756 137.719 64.4001 139.6C68.6001 143.932 75.1761 145.432 81.0881 144.208L125.152 131.808L119.856 118.456Z" fill="#C67875"/>
<path d="M116.8 118.136C116.802 118.102 116.809 118.068 116.82 118.036C116.844 117.964 116.872 117.868 116.904 117.748C116.988 117.48 117.1 117.108 117.248 116.632C117.56 115.648 118.004 114.232 118.556 112.48L123.096 98.304L123.156 98.428L118.464 96.488L118.28 96.412L118.444 96.304L119.528 95.592L123.068 93.28L123.028 93.392C121.228 87.144 119.644 81.632 118.504 77.668C117.948 75.7 117.5 74.116 117.184 73.012C117.04 72.472 116.924 72.052 116.84 71.752C116.805 71.6213 116.777 71.5133 116.756 71.428C116.743 71.3919 116.735 71.3542 116.732 71.316C116.732 71.316 116.732 71.348 116.772 71.42L116.876 71.744C116.968 72.04 117.096 72.456 117.256 72.992L118.636 77.628L123.224 93.336L123.244 93.408L123.18 93.452L119.644 95.768L118.56 96.476V96.292L123.248 98.24L123.336 98.276L123.308 98.364C121.46 104.04 119.848 108.98 118.696 112.52C118.116 114.272 117.656 115.676 117.332 116.652C117.172 117.124 117.044 117.496 116.956 117.76C116.916 117.876 116.88 117.968 116.856 118.044C116.841 118.077 116.822 118.108 116.8 118.136Z" fill="#263238"/>
<g opacity="0.2">
<path opacity="0.2" d="M123.2 93.424C122.964 94.2915 122.453 95.0591 121.744 95.612C121.192 95.928 121.508 96.348 121.964 96.788C122.512 97.316 123.392 97.46 123.796 98.1C124.2 98.74 123.972 99.472 123.764 100.144C121.76 106.519 119.328 112.752 116.484 118.8L123.2 98.332L118.516 96.4L123.2 93.424Z" fill="black"/>
</g>
<path d="M88.5081 118.632C88.4883 118.606 88.4721 118.578 88.4601 118.548C88.4321 118.484 88.3921 118.404 88.3481 118.3L87.9161 117.324C87.5401 116.46 87.0041 115.216 86.3161 113.664L80.9201 101.016L80.8881 100.944L80.9561 100.896L84.6561 98.248V98.4L82.2041 96.456L81.1161 95.6L80.5761 95.2L80.4441 95.092C80.4163 95.0722 80.3908 95.0494 80.3681 95.024C80.3423 94.9907 80.3233 94.9526 80.3121 94.912C80.2826 94.7929 80.2678 94.6707 80.2681 94.548C80.2927 93.6529 80.3756 92.7603 80.5161 91.876C80.7601 90.144 81.0481 88.48 81.3161 86.896C81.8841 83.732 82.4481 80.896 82.9161 78.496C83.3841 76.096 83.8041 74.188 84.0881 72.86C84.2321 72.204 84.3481 71.692 84.4281 71.328L84.5201 70.928C84.527 70.8823 84.5405 70.8378 84.5601 70.796C84.5579 70.8432 84.5512 70.8901 84.5401 70.936C84.5401 71.036 84.4961 71.168 84.4681 71.336C84.3961 71.7013 84.2961 72.2133 84.1681 72.872C83.9041 74.216 83.5281 76.144 83.0641 78.52C82.6001 80.896 82.0561 83.748 81.4961 86.92C81.2201 88.5 80.9361 90.164 80.6961 91.892C80.5582 92.7658 80.4767 93.6477 80.4521 94.532C80.451 94.6344 80.4631 94.7366 80.4881 94.836C80.4881 94.884 80.6041 94.956 80.6881 95.028L81.2241 95.452L82.3081 96.312L84.7561 98.252L84.8641 98.34L84.7521 98.42L81.0481 101.06L81.0801 100.936L86.4441 113.6C87.0961 115.164 87.6161 116.4 87.9761 117.284C88.1481 117.704 88.2841 118.032 88.3761 118.272L88.4721 118.528C88.487 118.562 88.499 118.596 88.5081 118.632Z" fill="#263238"/>
<path d="M123.499 101.277L94.3403 96.7789C93.8141 96.6978 93.3218 97.0585 93.2406 97.5847L86.9516 138.35C86.8704 138.877 87.2312 139.369 87.7573 139.45L116.916 143.949C117.443 144.03 117.935 143.669 118.016 143.143L124.305 102.377C124.386 101.851 124.026 101.359 123.499 101.277Z" fill="#C67875"/>
<g opacity="0.2">
<path opacity="0.2" d="M123.499 101.277L94.3403 96.7789C93.8141 96.6978 93.3218 97.0585 93.2406 97.5847L86.9516 138.35C86.8704 138.877 87.2312 139.369 87.7573 139.45L116.916 143.949C117.443 144.03 117.935 143.669 118.016 143.143L124.305 102.377C124.386 101.851 124.026 101.359 123.499 101.277Z" fill="black"/>
</g>
<path d="M122.579 102.064L94.9811 97.8063L88.8531 137.528L116.451 141.786L122.579 102.064Z" fill="#EBEBEB"/>
<path d="M114.288 101.412C114.092 100.808 113.732 100.269 113.249 99.8576C112.765 99.4458 112.176 99.1766 111.548 99.08L111.78 97.38C111.874 96.7643 111.72 96.1363 111.352 95.6339C110.984 95.1314 110.432 94.7956 109.816 94.7C109.2 94.6046 108.571 94.7579 108.067 95.1262C107.564 95.4945 107.228 96.0477 107.132 96.664L106.86 98.424L106.268 98.344C105.647 98.2577 105.014 98.3442 104.439 98.594C103.864 98.8438 103.369 99.2472 103.008 99.76L102.548 100.4L114.548 102.256L114.288 101.412ZM109.328 98.308C109.081 98.2702 108.85 98.16 108.666 97.9911C108.481 97.8223 108.351 97.6026 108.291 97.3596C108.232 97.1167 108.246 96.8616 108.331 96.6266C108.417 96.3915 108.57 96.1871 108.772 96.0392C108.973 95.8913 109.214 95.8065 109.464 95.7957C109.714 95.7848 109.961 95.8483 110.175 95.9782C110.389 96.108 110.559 96.2984 110.665 96.5251C110.77 96.7519 110.806 97.0048 110.768 97.252C110.716 97.5823 110.535 97.8787 110.266 98.0765C109.996 98.2742 109.659 98.3575 109.328 98.308Z" fill="#263238"/>
<path d="M104.332 105.02C103.071 104.933 101.816 104.775 100.572 104.548C99.3195 104.388 98.0764 104.161 96.8481 103.868C98.1079 103.955 99.3619 104.113 100.604 104.34C101.858 104.5 103.103 104.727 104.332 105.02Z" fill="#263238"/>
<path d="M100.26 105.684C99.6486 105.697 99.0377 105.638 98.4401 105.508C97.8317 105.449 97.2318 105.322 96.6521 105.128C97.2634 105.119 97.8738 105.178 98.4721 105.304C99.0805 105.363 99.6804 105.49 100.26 105.684Z" fill="#263238"/>
<path d="M117.296 111.916C117.296 111.972 112.616 111.296 106.868 110.412C101.12 109.528 96.468 108.756 96.468 108.7C96.468 108.644 101.144 109.316 106.896 110.204C112.648 111.092 117.304 111.856 117.296 111.916Z" fill="#263238"/>
<path d="M116.988 113.9C116.988 113.956 112.312 113.284 106.56 112.396C100.808 111.508 96.16 110.744 96.16 110.688C96.16 110.632 100.836 111.304 106.588 112.192C112.34 113.08 116.996 113.844 116.988 113.9Z" fill="#263238"/>
<path d="M116.684 115.888C116.684 115.944 112.004 115.268 106.256 114.384C100.508 113.5 95.8561 112.728 95.8561 112.672C95.8561 112.616 100.536 113.288 106.288 114.176C112.04 115.064 116.692 115.828 116.684 115.888Z" fill="#263238"/>
<path d="M116.376 117.872C116.376 117.928 111.7 117.256 105.948 116.368C100.196 115.48 95.5481 114.716 95.5481 114.656C95.5481 114.596 100.224 115.276 105.976 116.164C111.728 117.052 116.4 117.816 116.376 117.872Z" fill="#263238"/>
<path d="M116.068 119.856C116.068 119.916 111.392 119.24 105.64 118.352C99.8881 117.464 95.2401 116.7 95.2401 116.644C95.2401 116.588 99.9161 117.26 105.668 118.148C111.42 119.036 116.08 119.8 116.068 119.856Z" fill="#263238"/>
<path d="M115.764 121.844C115.764 121.9 111.084 121.228 105.336 120.34C99.588 119.452 94.936 118.688 94.936 118.628C94.936 118.568 99.612 119.244 105.364 120.132C111.116 121.02 115.772 121.788 115.764 121.844Z" fill="#263238"/>
<path d="M105.076 122.028C104.942 122.035 104.808 122.027 104.676 122.004C104.408 121.976 104.028 121.928 103.556 121.864C102.608 121.736 101.304 121.548 99.8681 121.328C98.4321 121.108 97.1321 120.892 96.1921 120.728C95.7201 120.648 95.3441 120.576 95.0801 120.524C94.9426 120.508 94.808 120.473 94.6801 120.42C94.8139 120.411 94.9483 120.419 95.0801 120.444C95.3481 120.472 95.7281 120.52 96.2001 120.584C97.1481 120.708 98.4521 120.9 99.8881 121.12C101.324 121.34 102.624 121.556 103.564 121.72C104.036 121.8 104.412 121.872 104.676 121.924C104.814 121.94 104.948 121.975 105.076 122.028Z" fill="#263238"/>
<path d="M118.964 107.096C118.398 107.113 117.833 107.061 117.28 106.94C116.717 106.889 116.162 106.768 115.628 106.58C116.757 106.615 117.877 106.789 118.964 107.096Z" fill="#263238"/>
<path d="M99.672 125.624C98.7587 125.587 97.8494 125.482 96.952 125.308C96.0441 125.204 95.1455 125.03 94.264 124.788C95.1774 124.824 96.0867 124.93 96.984 125.104C97.8918 125.21 98.7903 125.384 99.672 125.624Z" fill="#263238"/>
<path d="M99.576 127.456C98.6466 127.417 97.7214 127.308 96.8081 127.132C95.885 127.027 94.9716 126.851 94.076 126.604C95.0041 126.643 95.928 126.752 96.8401 126.928C97.7644 127.032 98.6792 127.209 99.576 127.456Z" fill="#263238"/>
<path d="M115.4 127.776C114.514 127.779 113.633 127.644 112.788 127.376C113.232 127.341 113.678 127.373 114.112 127.472C114.555 127.503 114.99 127.606 115.4 127.776Z" fill="#263238"/>
<path d="M115.24 129.412C114.354 129.415 113.473 129.28 112.628 129.012C113.514 129.009 114.395 129.144 115.24 129.412Z" fill="#263238"/>
<path d="M96.7601 128.96C96.3312 128.995 95.8995 128.964 95.4801 128.868C95.0519 128.836 94.6318 128.735 94.2361 128.568C94.6636 128.53 95.0944 128.561 95.5121 128.66C95.9417 128.691 96.3634 128.792 96.7601 128.96Z" fill="#263238"/>
<path d="M115.04 131.32C114.719 131.372 114.391 131.357 114.076 131.276C113.751 131.26 113.434 131.175 113.144 131.028C113.464 130.971 113.794 130.984 114.108 131.068C114.433 131.084 114.751 131.17 115.04 131.32Z" fill="#263238"/>
<path d="M93.4081 132.82C93.5651 132.806 93.7231 132.806 93.8801 132.82L95.2081 132.86L99.9521 133.048H100.06L100.036 133.152C99.9172 133.666 99.6231 134.123 99.2041 134.444C98.9821 134.621 98.7229 134.746 98.4458 134.809C98.1687 134.872 97.881 134.872 97.6041 134.808C97.3085 134.739 97.0341 134.6 96.8048 134.401C96.5755 134.202 96.3981 133.951 96.2881 133.668C96.1872 133.364 96.1798 133.037 96.2668 132.729C96.3538 132.421 96.5312 132.146 96.7761 131.94C96.9558 131.778 97.1729 131.662 97.4081 131.604C97.467 131.589 97.5273 131.579 97.5881 131.576C97.6532 131.568 97.719 131.568 97.7841 131.576C97.8278 131.583 97.8691 131.601 97.9046 131.627C97.9402 131.654 97.9688 131.688 97.9881 131.728C98.0145 131.797 98.0228 131.871 98.0121 131.944C97.9594 132.392 97.8107 132.823 97.5761 133.208C97.3479 133.577 97.0471 133.895 96.6921 134.144C96.3459 134.404 95.9248 134.544 95.4921 134.544C95.2835 134.529 95.0832 134.457 94.9136 134.335C94.7441 134.212 94.6119 134.045 94.5321 133.852C94.379 133.5 94.3508 133.106 94.4521 132.736C94.6889 132.119 95.0735 131.57 95.5721 131.136L95.6801 131.028V131.18C95.744 131.732 95.638 132.29 95.3761 132.78C95.1813 133.15 94.9084 133.474 94.5761 133.728C94.3691 133.888 94.1383 134.015 93.8921 134.104C93.8075 134.138 93.7187 134.159 93.6281 134.168C93.9532 134.049 94.2571 133.879 94.5281 133.664C94.8367 133.406 95.0887 133.088 95.2681 132.728C95.5087 132.254 95.5994 131.719 95.5281 131.192L95.6561 131.232C95.183 131.656 94.8193 132.189 94.5961 132.784C94.5088 133.115 94.537 133.467 94.6761 133.78C94.7426 133.941 94.8528 134.08 94.9941 134.182C95.1354 134.284 95.3024 134.344 95.4761 134.356C95.8582 134.352 96.2287 134.224 96.5321 133.992C96.8703 133.755 97.1546 133.45 97.3662 133.095C97.5779 132.741 97.7121 132.346 97.7601 131.936C97.7691 131.901 97.7691 131.863 97.7601 131.828C97.7601 131.808 97.7601 131.8 97.7041 131.792C97.6072 131.787 97.5101 131.796 97.4161 131.82C97.2144 131.871 97.0278 131.97 96.8721 132.108C96.6605 132.289 96.507 132.528 96.4309 132.795C96.3547 133.063 96.3593 133.347 96.4441 133.612C96.5404 133.856 96.6926 134.074 96.8886 134.248C97.0845 134.422 97.3187 134.547 97.5721 134.614C97.8256 134.681 98.0912 134.688 98.3476 134.633C98.604 134.579 98.8439 134.464 99.0481 134.3C99.4349 134.01 99.7081 133.594 99.8201 133.124L99.9041 133.232L95.2001 132.956L93.8721 132.868C93.7166 132.862 93.5616 132.846 93.4081 132.82Z" fill="#263238"/>
<path d="M113.176 135.8C113.112 135.891 113.036 135.972 112.948 136.04C112.846 136.128 112.731 136.2 112.608 136.256C112.435 136.332 112.24 136.342 112.06 136.284C111.947 136.249 111.848 136.177 111.78 136.08C111.713 135.974 111.674 135.853 111.668 135.728C111.671 135.472 111.69 135.217 111.724 134.964C111.776 134.42 111.836 133.824 111.9 133.18L112.072 133.248L110.544 135.316L110.164 135.828L109.916 136.164L109.976 135.764C110.14 134.696 110.288 133.7 110.42 132.824L110.568 132.904C109.944 133.43 109.391 134.035 108.924 134.704C108.588 135.188 108.428 135.504 108.408 135.48C108.428 135.4 108.459 135.323 108.5 135.252C108.603 135.045 108.716 134.843 108.84 134.648C109.279 133.947 109.818 133.313 110.44 132.768L110.62 132.612L110.584 132.852C110.464 133.724 110.32 134.724 110.184 135.796L109.996 135.716L110.396 135.204C110.94 134.476 111.456 133.78 111.936 133.144L112.148 132.856L112.108 133.212C112.032 133.856 111.964 134.452 111.9 134.992C111.863 135.237 111.839 135.484 111.828 135.732C111.822 135.828 111.846 135.924 111.898 136.005C111.95 136.087 112.026 136.149 112.116 136.184C112.254 136.221 112.4 136.224 112.539 136.192C112.679 136.16 112.808 136.094 112.916 136C112.997 135.926 113.084 135.859 113.176 135.8Z" fill="#263238"/>
<path d="M113.88 134.712C112.574 134.809 111.265 134.837 109.956 134.796C108.648 134.825 107.34 134.785 106.036 134.676C107.34 134.576 108.649 134.547 109.956 134.588C111.265 134.559 112.575 134.6 113.88 134.712Z" fill="#263238"/>
<path d="M115.156 135.956C114.121 136.171 113.074 136.32 112.02 136.4C110.974 136.547 109.92 136.627 108.864 136.64C109.898 136.419 110.946 136.269 112 136.192C113.046 136.042 114.1 135.963 115.156 135.956Z" fill="#263238"/>
<g opacity="0.2">
<path opacity="0.2" d="M80.3721 94.772C80.3241 95.972 80.6481 97.196 81.6481 97.872C80.3961 98.48 79.7281 99.936 79.6881 101.328C79.6481 102.72 80.1321 104.072 80.6561 105.364C82.2761 109.336 85.7321 114.928 88.3681 118.312C88.3681 118.312 87.0321 114.712 86.6481 113.868C84.9121 110.072 83.3801 106.268 81.6401 102.46C81.4481 102.06 81.1041 100.892 81.1041 100.892C81.2935 100.799 81.4686 100.679 81.6241 100.536C82.6001 99.736 84.7161 98.332 84.7161 98.332C84.7161 98.332 80.3721 94.892 80.3721 94.772Z" fill="black"/>
</g>
<path d="M80.312 102.932C80.368 102.932 80.268 107.552 80.084 113.244C79.9 118.936 79.708 123.552 79.652 123.548C79.596 123.544 79.692 118.932 79.876 113.236C80.06 107.54 80.252 102.928 80.312 102.932Z" fill="#263238"/>
<path d="M87.2 90.8H86.8C86.8 90.648 87.38 75.516 87.832 69.492C87.8468 69.0692 87.9477 68.6539 88.1286 68.2715C88.3095 67.889 88.5666 67.5476 88.8841 67.268C90.1321 66.2 92.0001 66.34 92.0841 66.344L92.0521 66.744C92.0321 66.744 90.268 66.616 89.148 67.572C88.8715 67.8186 88.6477 68.1188 88.4903 68.4542C88.3329 68.7897 88.245 69.1536 88.2321 69.524C87.792 75.504 87.22 90.632 87.2 90.8Z" fill="#263238"/>
<path d="M90.9481 116.112H90.2401V115.312H90.9481C91.6907 115.312 92.4029 115.017 92.928 114.492C93.4531 113.967 93.7481 113.255 93.7481 112.512V104.04H94.5481V112.512C94.5481 113.467 94.1688 114.382 93.4937 115.058C92.8186 115.733 91.9029 116.112 90.9481 116.112Z" fill="#394449"/>
<path d="M91.236 115.808C91.2194 115.977 91.1529 116.138 91.0451 116.269C90.9372 116.401 90.7928 116.497 90.63 116.547C90.4673 116.596 90.2935 116.596 90.1308 116.547C89.968 116.498 89.8235 116.401 89.7155 116.27C89.6076 116.138 89.5411 115.978 89.5243 115.809C89.5076 115.639 89.5414 115.469 89.6215 115.319C89.7016 115.169 89.8244 115.046 89.9744 114.966C90.1244 114.885 90.2947 114.851 90.464 114.868C90.6906 114.891 90.8989 115.003 91.0435 115.179C91.188 115.355 91.2572 115.581 91.236 115.808Z" fill="#263238"/>
<path d="M84.0281 116.092H83.3201C82.3653 116.092 81.4496 115.713 80.7745 115.038C80.0994 114.362 79.7201 113.447 79.7201 112.492L79.7521 104.02H80.5521L80.5201 112.492C80.5201 113.235 80.8151 113.947 81.3402 114.472C81.8653 114.997 82.5775 115.292 83.3201 115.292H84.0281V116.092Z" fill="#394449"/>
<path d="M83.0361 115.784C83.0526 115.952 83.1187 116.112 83.2259 116.243C83.3331 116.374 83.4766 116.47 83.6384 116.519C83.8002 116.568 83.973 116.569 84.1349 116.52C84.2969 116.471 84.4407 116.375 84.5484 116.245C84.656 116.114 84.7225 115.955 84.7396 115.787C84.7567 115.618 84.7235 115.449 84.6444 115.299C84.5652 115.15 84.4435 115.027 84.2946 114.947C84.1458 114.867 83.9765 114.832 83.8081 114.848C83.6958 114.859 83.5868 114.891 83.4872 114.944C83.3876 114.997 83.2993 115.069 83.2276 115.156C83.1559 115.243 83.102 115.343 83.0692 115.451C83.0363 115.559 83.0251 115.672 83.0361 115.784Z" fill="#263238"/>
<path d="M79.5161 104.996L79.4161 98.956C79.3401 94.352 82.7041 90.556 86.9161 90.48C87.9419 90.4708 88.9582 90.6776 89.8989 91.087C90.8396 91.4963 91.6836 92.0991 92.3761 92.856C93.8478 94.4483 94.6735 96.5318 94.6921 98.7L94.7921 104.744L93.5921 104.764L93.4921 98.72C93.4775 96.8481 92.7642 95.0492 91.4921 93.676C90.9157 93.0391 90.211 92.5317 89.4244 92.1869C88.6377 91.8422 87.7869 91.6681 86.9281 91.676C83.3761 91.736 80.5281 94.988 80.6081 98.932L80.7081 104.972L79.5161 104.996Z" fill="#263238"/>
<path d="M113.684 91.024C113.684 90.864 111.848 75.14 111.32 70.1L111.284 69.732C111.12 68.02 110.928 66.084 109.036 65.572L109.14 65.172C111.3 65.756 111.512 67.932 111.684 69.68L111.72 70.044C112.244 75.084 114.064 90.808 114.08 90.968L113.684 91.024Z" fill="#263238"/>
<path d="M116.921 91.3641C118.597 89.6879 118.597 86.9704 116.921 85.2943C115.244 83.6181 112.527 83.6181 110.851 85.2943C109.175 86.9704 109.175 89.6879 110.851 91.3641C112.527 93.0402 115.244 93.0402 116.921 91.3641Z" fill="#263238"/>
<path d="M115.956 88.328C115.956 88.7388 115.834 89.1403 115.606 89.4818C115.378 89.8233 115.053 90.0893 114.674 90.2464C114.294 90.4034 113.876 90.4442 113.474 90.3638C113.071 90.2834 112.701 90.0853 112.411 89.7945C112.121 89.5038 111.923 89.1335 111.843 88.7305C111.764 88.3276 111.806 87.91 111.963 87.5308C112.121 87.1515 112.388 86.8275 112.73 86.5999C113.072 86.3723 113.473 86.2512 113.884 86.252C114.157 86.252 114.426 86.3057 114.678 86.4101C114.93 86.5145 115.158 86.6675 115.351 86.8603C115.543 87.0531 115.696 87.282 115.8 87.5338C115.903 87.7857 115.957 88.0556 115.956 88.328Z" fill="#394449"/>
<path d="M88.5081 118.632L83.1201 131.884L126.1 143.8C128.065 144.347 130.127 144.452 132.137 144.106C134.147 143.76 136.055 142.973 137.724 141.8C142.22 138.628 143.324 133.08 142.776 127.588L142 121.748L88.5081 118.632Z" fill="#C67875"/>
<path d="M134.044 133.016C134 133.016 133.908 132.112 133.464 130.716C133.35 130.335 133.217 129.96 133.064 129.592C132.912 129.192 132.7 128.792 132.488 128.344C131.995 127.418 131.415 126.541 130.756 125.724C130.085 124.918 129.341 124.176 128.532 123.508C128.132 123.216 127.788 122.924 127.424 122.708C127.095 122.481 126.755 122.272 126.404 122.08C125.124 121.372 124.248 121.1 124.264 121.056C124.474 121.099 124.679 121.162 124.876 121.244C125.115 121.321 125.349 121.414 125.576 121.52C125.844 121.644 126.156 121.768 126.476 121.952C126.835 122.136 127.184 122.34 127.52 122.564C127.892 122.788 128.26 123.08 128.652 123.364C129.479 124.032 130.239 124.78 130.92 125.596C131.586 126.424 132.167 127.316 132.656 128.26C132.868 128.704 133.076 129.12 133.224 129.532C133.379 129.905 133.513 130.287 133.624 130.676C133.725 130.994 133.806 131.317 133.868 131.644C133.931 131.892 133.976 132.145 134 132.4C134.033 132.604 134.048 132.81 134.044 133.016Z" fill="#263238"/>
<g opacity="0.2">
<path opacity="0.2" d="M82.1601 124.272C78.8801 124.544 76.3481 124.844 72.9601 125.26C70.8441 125.52 68.6481 125.372 67.9561 123.36C67.2641 121.348 67.7041 119.044 68.8401 117.24C69.9761 115.436 71.7601 111.24 81.3121 114.44L82.1601 124.272Z" fill="black"/>
</g>
<path d="M86.5841 123.692L86.6081 123.604L86.7001 123.34L87.0601 122.332L88.4401 118.608L88.4601 118.556H88.5121L103.132 119.88L117.276 121.224L121.56 121.652L122.724 121.78L123.024 121.82C123.06 121.821 123.095 121.828 123.128 121.84H123.024H122.72L121.552 121.752L117.26 121.384L103.112 120.104L88.5001 118.716L88.5721 118.668L87.1321 122.372L86.7321 123.364L86.6241 123.62C86.6041 123.668 86.5881 123.696 86.5841 123.692Z" fill="#263238"/>
<g opacity="0.2">
<path opacity="0.2" d="M104.268 137.36C110.372 138.996 114.084 138.048 119.628 135.016C120.764 134.35 121.854 133.61 122.892 132.8C123.683 132.154 124.386 131.407 124.984 130.58C117.844 133.312 111.912 135.38 104.552 137.436" fill="black"/>
</g>
<path d="M86.6041 123.548L88.0001 119.648L84.7561 114.576C84.4753 114.136 84.1077 113.759 83.6757 113.467C83.2437 113.174 82.7566 112.973 82.2441 112.876L70.3081 110.624C70.1597 111.071 70.1803 111.557 70.3661 111.989C70.5518 112.422 70.8899 112.772 71.3161 112.972C72.8801 113.864 79.9161 115.5 79.9161 115.5L69.0801 115.316C69.0801 115.316 68.7441 116.88 69.9721 117.44C71.2001 118 78.9201 118.284 78.9201 118.284L69.0361 119.676C69.0361 119.676 68.9801 121.244 71.2401 121.276C73.4658 121.249 75.6887 121.109 77.9001 120.856C77.9917 120.843 78.0846 120.867 78.1592 120.921C78.2339 120.976 78.2844 121.057 78.3001 121.148C78.3137 121.236 78.2936 121.326 78.244 121.4C78.1944 121.474 78.1188 121.527 78.0321 121.548L71.4601 123.1C71.2708 123.143 71.1008 123.247 70.9768 123.396C70.8527 123.545 70.7815 123.731 70.7742 123.925C70.7669 124.119 70.8239 124.31 70.9364 124.468C71.0489 124.627 71.2105 124.743 71.3961 124.8C71.5152 124.829 71.6383 124.837 71.7601 124.824C72.8801 124.712 79.5681 123.864 79.5681 123.864L79.9161 124.644L86.6041 123.556" fill="#B78876"/>
<path d="M81.6961 122.344C81.6052 122.129 81.481 121.929 81.3281 121.752C81.1513 121.571 80.9349 121.434 80.6961 121.352C80.401 121.262 80.0917 121.228 79.7841 121.252C79.1201 121.3 78.5201 121.492 78.0721 121.548C77.8302 121.607 77.5779 121.607 77.3361 121.548C77.5688 121.482 77.8052 121.43 78.0441 121.392C78.6092 121.225 79.1872 121.104 79.7721 121.032C80.108 121.006 80.4458 121.049 80.7641 121.16C81.0231 121.26 81.2538 121.422 81.4361 121.632C81.5319 121.722 81.6054 121.834 81.6505 121.957C81.6956 122.081 81.7113 122.213 81.6961 122.344Z" fill="#AA6550"/>
<path d="M82.7761 119.372C82.7561 119.372 82.7441 119.264 82.6561 119.092C82.5262 118.853 82.3285 118.658 82.0881 118.532C81.4841 118.18 80.4641 118.296 79.3921 118.368C78.3201 118.44 77.3361 118.6 76.6281 118.692C76.2482 118.764 75.8627 118.803 75.4761 118.808C75.8425 118.684 76.2204 118.597 76.6041 118.548C77.5194 118.368 78.4433 118.235 79.3721 118.148C79.8854 118.101 80.4007 118.081 80.9161 118.088C81.3503 118.078 81.7796 118.182 82.1601 118.392C82.4175 118.541 82.6175 118.772 82.7281 119.048C82.778 119.148 82.7948 119.262 82.7761 119.372Z" fill="#AA6550"/>
<path d="M83.6 117.644C83.5908 117.327 83.5043 117.016 83.348 116.74C83.1697 116.451 82.9223 116.21 82.628 116.04C82.2551 115.845 81.8473 115.725 81.428 115.688C80.532 115.604 79.692 115.688 79.08 115.64C78.7475 115.64 78.4198 115.56 78.124 115.408C78.124 115.376 78.492 115.484 79.088 115.496C79.684 115.508 80.512 115.396 81.452 115.496C81.8992 115.533 82.3325 115.67 82.72 115.896C83.0383 116.09 83.2982 116.366 83.472 116.696C83.5927 116.914 83.6547 117.159 83.652 117.408C83.644 117.556 83.6 117.644 83.6 117.644Z" fill="#AA6550"/>
<path d="M122.348 117.632C122.349 117.415 122.369 117.198 122.408 116.984C122.46 116.584 122.56 115.968 122.7 115.232C122.976 113.76 123.464 111.748 123.98 109.528C124.436 107.637 124.785 105.722 125.024 103.792C125.072 103.42 125.092 103.084 125.12 102.788C125.148 102.492 125.164 102.24 125.172 102.028C125.17 101.811 125.189 101.594 125.228 101.38C125.254 101.596 125.262 101.814 125.252 102.032C125.252 102.24 125.252 102.5 125.252 102.796C125.252 103.092 125.228 103.432 125.184 103.804C124.99 105.748 124.661 107.677 124.2 109.576C123.68 111.8 123.172 113.8 122.86 115.264C122.704 115.992 122.58 116.588 122.504 116.996C122.469 117.212 122.417 117.425 122.348 117.632Z" fill="#263238"/>
<path d="M126.496 143.872C126.416 143.871 126.336 143.857 126.26 143.832L125.596 143.684L123.164 143.084C121.112 142.568 118.284 141.82 115.164 140.956C112.044 140.092 109.248 139.264 107.228 138.644L104.828 137.9L104.18 137.684C104.117 137.663 104.057 137.634 104 137.6C104.079 137.605 104.157 137.621 104.232 137.648L104.892 137.824L107.292 138.508L115.244 140.76L123.2 142.944L125.6 143.604L126.256 143.792C126.339 143.81 126.419 143.837 126.496 143.872Z" fill="#263238"/>
<path d="M85.3201 27.852C86.2001 25.136 90.7081 22.684 93.1801 21.26C96.8801 19.136 100.308 19.56 102.42 21.452C106.236 18.252 111.264 15.172 116.084 16.432C120.904 17.692 124.82 22.628 123.94 27.536C123.424 30.428 121.42 33.02 121.54 35.936C121.62 37.936 122.68 39.744 123.54 41.56C124.4 43.376 125.032 45.488 124.28 47.344C123.58 49.068 121.832 50.144 120.892 51.744C120.124 53.056 119.948 54.616 119.456 56.052C117.64 61.372 111.36 64.356 105.816 63.42C100.272 62.484 95.6521 58.312 93.0161 53.336C90.3801 48.36 89.5321 42.648 89.2281 37.036" fill="#263238"/>
<path d="M89.4041 31.6L90.5121 75.96C90.9121 81.044 95.5961 84.76 101.036 84.288C106.528 83.816 110.724 79.268 110.408 74.124C110.076 68.728 109.828 63.036 109.828 63.036C109.828 63.036 116.704 61.436 117.56 52.268C117.996 47.572 117.236 39.868 116.44 33.764C116.284 32.547 115.883 31.3742 115.262 30.3162C114.641 29.2581 113.812 28.3366 112.826 27.6072C111.839 26.8777 110.715 26.3554 109.522 26.0717C108.328 25.7879 107.089 25.7486 105.88 25.956" fill="#B78876"/>
<path d="M114.4 40.32C114.423 40.6227 114.327 40.9226 114.132 41.1552C113.937 41.3878 113.658 41.5345 113.356 41.564C113.209 41.5859 113.059 41.5781 112.915 41.541C112.771 41.5039 112.636 41.4383 112.517 41.348C112.399 41.2578 112.3 41.1447 112.227 41.0155C112.153 40.8864 112.106 40.7437 112.088 40.596C112.066 40.2931 112.162 39.9933 112.357 39.7603C112.552 39.5273 112.83 39.3794 113.132 39.348C113.279 39.3267 113.429 39.335 113.574 39.3726C113.718 39.4102 113.853 39.4762 113.971 39.5668C114.089 39.6574 114.188 39.7707 114.262 39.9C114.335 40.0294 114.382 40.1722 114.4 40.32Z" fill="#263238"/>
<path d="M115.556 39.136C115.42 39.296 114.496 38.7 113.244 38.784C111.992 38.868 111.116 39.552 110.972 39.408C110.9 39.344 111.028 39.064 111.408 38.744C111.926 38.3329 112.559 38.0925 113.22 38.056C113.87 38.0132 114.517 38.177 115.068 38.524C115.472 38.8 115.62 39.06 115.556 39.136Z" fill="#263238"/>
<path d="M102.4 41.576C102.425 41.8794 102.329 42.1802 102.134 42.4137C101.938 42.6472 101.659 42.7945 101.356 42.824C101.209 42.8453 101.059 42.8369 100.915 42.7994C100.77 42.7618 100.635 42.6958 100.517 42.6052C100.399 42.5146 100.3 42.4013 100.226 42.272C100.153 42.1426 100.106 41.9998 100.088 41.852C100.066 41.549 100.162 41.2493 100.357 41.0163C100.552 40.7833 100.83 40.6354 101.132 40.604C101.279 40.5827 101.43 40.591 101.574 40.6286C101.718 40.6662 101.853 40.7322 101.971 40.8228C102.089 40.9133 102.188 41.0266 102.262 41.156C102.335 41.2854 102.382 41.4282 102.4 41.576Z" fill="#263238"/>
<path d="M103.264 40.164C103.128 40.324 102.204 39.728 100.952 39.812C99.7001 39.896 98.8241 40.58 98.6801 40.436C98.6081 40.372 98.7361 40.092 99.1201 39.772C99.6374 39.3616 100.269 39.1213 100.928 39.084C101.578 39.0412 102.225 39.205 102.776 39.552C103.2 39.824 103.328 40.088 103.264 40.164Z" fill="#263238"/>
<path d="M108.4 49.152C108.4 49.084 109.156 48.9 110.4 48.656C110.716 48.604 111.016 48.52 111.056 48.296C111.062 47.9644 110.965 47.6391 110.78 47.364C110.432 46.608 110.064 45.82 109.68 44.992C108.144 41.608 107.008 38.82 107.144 38.76C107.28 38.7 108.636 41.392 110.176 44.76C110.544 45.592 110.9 46.388 111.236 47.16C111.465 47.5318 111.553 47.973 111.484 48.404C111.445 48.5196 111.38 48.6248 111.294 48.7115C111.208 48.7982 111.103 48.864 110.988 48.904C110.815 48.9644 110.635 49.0007 110.452 49.012C109.2 49.168 108.4 49.224 108.4 49.152Z" fill="#263238"/>
<path d="M109.832 63.02C105.564 63.3612 101.285 62.5109 97.472 60.564C97.472 60.564 100.908 66.672 109.932 65.236L109.832 63.02Z" fill="#AA6550"/>
<path d="M103.272 35.236C103.168 35.584 101.908 35.504 100.452 35.776C98.9961 36.048 97.8321 36.524 97.6161 36.232C97.5201 36.092 97.7081 35.756 98.1641 35.396C98.7733 34.9451 99.4806 34.645 100.228 34.52C100.975 34.3824 101.743 34.4221 102.472 34.636C103.024 34.82 103.312 35.072 103.272 35.236Z" fill="#263238"/>
<path d="M114.86 35.54C114.66 35.84 113.776 35.6 112.74 35.652C111.704 35.704 110.836 35.968 110.616 35.684C110.516 35.544 110.616 35.252 111.016 34.956C111.511 34.6003 112.1 34.3997 112.709 34.3797C113.318 34.3598 113.919 34.5214 114.436 34.844C114.8 35.112 114.948 35.396 114.86 35.54Z" fill="#263238"/>
<path d="M106.464 51.508C107.444 51.508 107.932 51.796 108.764 52.308C109.015 52.44 109.221 52.6432 109.356 52.892C109.42 53.0707 109.442 53.2618 109.421 53.4504C109.399 53.6391 109.335 53.8202 109.232 53.98C109.027 54.3433 108.723 54.6406 108.356 54.8369C107.988 55.0331 107.572 55.1203 107.156 55.088C106.742 55.0445 106.351 54.8727 106.039 54.5966C105.728 54.3205 105.51 53.9539 105.416 53.548C105.339 53.1387 105.4 52.7153 105.589 52.3445C105.779 51.9737 106.087 51.6766 106.464 51.5" fill="#AA6550"/>
<path d="M109.788 53.6C109.788 53.696 109.476 53.84 108.928 53.808C108.235 53.7437 107.565 53.525 106.968 53.168C106.366 52.8327 105.832 52.3861 105.396 51.852C105.072 51.452 104.972 51.1 105.056 51.052C105.22 50.944 106.044 51.808 107.34 52.52C107.876 52.8293 108.44 53.0878 109.024 53.292C109.472 53.444 109.776 53.496 109.788 53.6Z" fill="#263238"/>
<path d="M103.608 45.792C103.791 45.792 103.94 45.6434 103.94 45.46C103.94 45.2766 103.791 45.128 103.608 45.128C103.425 45.128 103.276 45.2766 103.276 45.46C103.276 45.6434 103.425 45.792 103.608 45.792Z" fill="#AA6550"/>
<path d="M113.34 43.832C113.34 43.8977 113.321 43.9619 113.284 44.0165C113.248 44.071 113.196 44.1136 113.135 44.1387C113.074 44.1639 113.008 44.1704 112.943 44.1576C112.879 44.1448 112.82 44.1132 112.773 44.0668C112.727 44.0203 112.695 43.9612 112.682 43.8968C112.67 43.8324 112.676 43.7656 112.701 43.705C112.726 43.6443 112.769 43.5924 112.824 43.556C112.878 43.5195 112.942 43.5 113.008 43.5C113.096 43.5 113.181 43.535 113.243 43.5972C113.305 43.6595 113.34 43.7439 113.34 43.832Z" fill="#AA6550"/>
<path d="M115.176 44.696C115.181 44.7429 115.176 44.7904 115.162 44.8354C115.148 44.8803 115.124 44.9217 115.092 44.9569C115.061 44.992 115.022 45.0202 114.979 45.0394C114.936 45.0587 114.889 45.0686 114.842 45.0686C114.795 45.0686 114.748 45.0587 114.705 45.0394C114.662 45.0202 114.623 44.992 114.592 44.9569C114.56 44.9217 114.537 44.8803 114.522 44.8354C114.508 44.7904 114.503 44.7429 114.508 44.696C114.517 44.6137 114.556 44.5377 114.618 44.4824C114.679 44.4272 114.759 44.3966 114.842 44.3966C114.925 44.3966 115.005 44.4272 115.066 44.4824C115.128 44.5377 115.167 44.6137 115.176 44.696Z" fill="#AA6550"/>
<path d="M115.732 43.308C115.732 43.3736 115.713 43.4378 115.676 43.4924C115.64 43.547 115.588 43.5896 115.527 43.6147C115.466 43.6398 115.4 43.6464 115.335 43.6336C115.271 43.6208 115.212 43.5892 115.165 43.5427C115.119 43.4963 115.087 43.4372 115.074 43.3728C115.062 43.3084 115.068 43.2416 115.093 43.1809C115.119 43.1203 115.161 43.0684 115.216 43.0319C115.27 42.9955 115.334 42.976 115.4 42.976C115.488 42.976 115.573 43.011 115.635 43.0732C115.697 43.1355 115.732 43.2199 115.732 43.308Z" fill="#AA6550"/>
<path d="M102.42 46.928C102.421 46.9946 102.402 47.06 102.365 47.1157C102.329 47.1715 102.277 47.2152 102.215 47.2412C102.154 47.2673 102.086 47.2745 102.021 47.262C101.956 47.2495 101.895 47.2178 101.848 47.171C101.8 47.1242 101.768 47.0643 101.755 46.999C101.742 46.9337 101.748 46.866 101.773 46.8043C101.799 46.7427 101.842 46.69 101.897 46.6529C101.952 46.6158 102.017 46.596 102.084 46.596C102.172 46.596 102.257 46.6308 102.32 46.693C102.383 46.7551 102.419 46.8396 102.42 46.928Z" fill="#AA6550"/>
<path d="M101.172 45.6C101.172 45.6656 101.153 45.7298 101.116 45.7844C101.08 45.839 101.028 45.8816 100.967 45.9067C100.906 45.9318 100.84 45.9384 100.775 45.9256C100.711 45.9128 100.652 45.8812 100.605 45.8347C100.559 45.7883 100.527 45.7291 100.514 45.6647C100.502 45.6003 100.508 45.5336 100.533 45.4729C100.558 45.4123 100.601 45.3604 100.656 45.3239C100.71 45.2874 100.774 45.268 100.84 45.268C100.928 45.268 101.013 45.303 101.075 45.3652C101.137 45.4275 101.172 45.5119 101.172 45.6Z" fill="#AA6550"/>
<path d="M106.612 41.576C106.575 41.1043 106.501 40.6363 106.392 40.176C106.063 38.925 105.322 37.8215 104.288 37.044C103.582 36.5079 102.76 36.1461 101.888 35.988C100.889 35.8051 99.8587 35.8921 98.9041 36.24C98.3898 36.4235 97.9068 36.6853 97.4721 37.016C97.0118 37.3507 96.6069 37.7557 96.2721 38.216C95.5576 39.1883 95.1723 40.3634 95.1723 41.57C95.1723 42.7766 95.5576 43.9517 96.2721 44.924C96.9349 45.8338 97.85 46.5292 98.9041 46.924C99.8587 47.2719 100.889 47.3588 101.888 47.176C102.76 47.0178 103.582 46.656 104.288 46.12C105.321 45.343 106.062 44.2413 106.392 42.992C106.501 42.5316 106.574 42.0635 106.612 41.592C106.618 41.6223 106.618 41.6536 106.612 41.684V41.96C106.612 42.11 106.6 42.2598 106.576 42.408C106.556 42.6105 106.52 42.8111 106.468 43.008C106.342 43.5571 106.131 44.0833 105.844 44.568C105.157 45.7438 104.08 46.6414 102.799 47.1048C101.519 47.5682 100.116 47.5679 98.8361 47.104C98.3025 46.9141 97.8008 46.6444 97.3481 46.304C96.8692 45.959 96.4491 45.5389 96.1041 45.06C95.3589 44.055 94.9565 42.8371 94.9565 41.586C94.9565 40.3348 95.3589 39.1169 96.1041 38.112C96.4491 37.633 96.8692 37.2129 97.3481 36.868C97.8008 36.5276 98.3025 36.2579 98.8361 36.068C99.8229 35.7139 100.886 35.631 101.916 35.828C102.73 35.9857 103.502 36.3148 104.179 36.7934C104.856 37.272 105.424 37.8892 105.844 38.604C106.131 39.0889 106.341 39.6151 106.468 40.164C106.52 40.3621 106.556 40.5641 106.576 40.768C106.6 40.9148 106.612 41.0632 106.612 41.212V41.488C106.617 41.5171 106.617 41.5469 106.612 41.576Z" fill="white"/>
<path d="M109.12 39.828C108.675 39.7055 108.214 39.6516 107.752 39.668C107.297 39.7503 106.856 39.8986 106.444 40.108C106.444 40.108 106.528 39.956 106.752 39.804C107.046 39.6143 107.38 39.4965 107.728 39.46C108.078 39.4204 108.432 39.467 108.76 39.596C109.008 39.696 109.132 39.804 109.12 39.828Z" fill="white"/>
<path d="M105.464 24.66C104.664 31.888 99.2881 38.396 92.3521 40.588C94.5881 43.812 93.1801 49.948 93.2361 55.068C93.2921 59.828 93.2881 61.188 90.2041 63.616C87.6561 64.228 86.2041 57.248 84.2921 55.296C82.3801 53.344 80.5841 50.94 80.7241 48.228C80.7921 46.956 81.2881 45.74 81.3561 44.472C81.4361 43.064 80.9841 41.672 80.7361 40.3C79.6321 34.16 82.8001 27.556 88.1641 24.344C93.5281 21.132 100.652 21.348 105.96 24.632" fill="#263238"/>
<path d="M90.156 54.376C89.4912 52.0411 88.3484 49.8698 86.8 48L86.916 48.248C86.4377 47.1571 85.7175 46.1894 84.8098 45.4181C83.9022 44.6468 82.831 44.092 81.6773 43.7959C80.5236 43.4997 79.3177 43.4699 78.1508 43.7087C76.9839 43.9476 75.8866 44.4487 74.942 45.1743C73.9974 45.8998 73.2302 46.8308 72.6986 47.8966C72.1669 48.9625 71.8848 50.1354 71.8734 51.3264C71.862 52.5175 72.1218 53.6955 72.633 54.7713C73.1442 55.8471 73.8934 56.7925 74.824 57.536C73.924 57.336 73.012 58.112 72.824 59.012C72.7543 59.4698 72.7782 59.937 72.8944 60.3854C73.0106 60.8337 73.2166 61.2537 73.5 61.62C75.376 64.364 79.628 65.088 82.3 63.12C84.42 64.556 87.552 63.72 89.124 61.7C90.696 59.68 90.88 56.832 90.156 54.376Z" fill="#263238"/>
<path d="M81.5681 43.788C81.4847 43.7095 81.4084 43.6238 81.3401 43.532C81.1539 43.2642 81.0183 42.9646 80.9401 42.648C80.6961 41.82 80.8121 40.512 81.4681 39.128C81.8246 38.3702 82.3151 37.6832 82.9161 37.1C83.5742 36.4078 84.3036 35.787 85.0921 35.248C85.9644 34.647 86.9162 34.1704 87.9201 33.832C88.9561 33.476 90.0561 33.2 91.1761 32.92C92.2961 32.64 93.392 32.364 94.416 32.004C95.4033 31.6638 96.3622 31.2465 97.284 30.756C98.8433 29.9258 100.293 28.9046 101.6 27.716C102.481 26.9106 103.294 26.0343 104.032 25.096C104.296 24.764 104.488 24.496 104.62 24.296C104.682 24.2016 104.753 24.1133 104.832 24.032C104.78 24.1319 104.721 24.2282 104.656 24.32C104.532 24.508 104.352 24.784 104.096 25.12C103.379 26.084 102.575 26.981 101.696 27.8C100.388 29.014 98.9309 30.057 97.36 30.904C96.4308 31.4019 95.4638 31.8259 94.468 32.172C93.432 32.536 92.3321 32.816 91.2121 33.1C90.0921 33.384 88.9961 33.652 87.9681 34C86.9761 34.33 86.034 34.7943 85.1681 35.38C84.3889 35.9112 83.6652 36.5196 83.0081 37.196C82.4226 37.7744 81.9458 38.4531 81.6001 39.2C80.9401 40.548 80.8001 41.824 81.0201 42.636C81.122 43.0534 81.3085 43.4455 81.5681 43.788Z" fill="#394449"/>
<path d="M104.824 24.052C104.767 24.1322 104.704 24.2084 104.636 24.28C104.508 24.428 104.312 24.636 104.06 24.904C103.335 25.6506 102.564 26.3519 101.752 27.004C100.552 27.9907 99.2154 28.799 97.7841 29.404C96.9247 29.7215 96.0385 29.9612 95.1361 30.12C94.2041 30.308 93.2321 30.452 92.2401 30.604C90.3712 30.8274 88.5255 31.2142 86.7241 31.76C85.2626 32.237 83.9052 32.9877 82.7241 33.972C81.9302 34.6377 81.275 35.4532 80.7961 36.372C80.6714 36.6244 80.5606 36.8834 80.4641 37.148C80.4359 37.2427 80.3969 37.334 80.3481 37.42C80.3668 37.3236 80.3922 37.2287 80.4241 37.136C80.504 36.8622 80.6043 36.5948 80.7241 36.336C81.1818 35.3896 81.83 34.5481 82.6281 33.864C83.8101 32.8498 85.1782 32.0754 86.6561 31.584C88.4645 31.019 90.32 30.6174 92.2001 30.384C93.1961 30.236 94.1641 30.088 95.0881 29.908C95.9803 29.7535 96.857 29.5206 97.7081 29.212C99.1255 28.623 100.453 27.838 101.652 26.88C102.471 26.2437 103.254 25.564 104 24.844L104.604 24.252C104.671 24.1781 104.744 24.1111 104.824 24.052Z" fill="#394449"/>
<path d="M114.98 16.14C114.98 16.184 114.2 16.212 112.98 16.54C112.649 16.6261 112.323 16.7303 112.004 16.852C111.656 16.968 111.304 17.14 110.924 17.308C109.306 18.0892 107.883 19.2205 106.756 20.62C106.508 20.952 106.26 21.256 106.068 21.572C105.877 21.8537 105.702 22.1462 105.544 22.448C104.956 23.552 104.744 24.312 104.712 24.296C104.739 24.1157 104.784 23.9387 104.848 23.768C104.906 23.5605 104.978 23.3573 105.064 23.16C105.165 22.8866 105.283 22.6195 105.416 22.36C105.565 22.0478 105.735 21.7458 105.924 21.456C106.112 21.136 106.356 20.82 106.604 20.48C107.176 19.7707 107.821 19.1232 108.528 18.548C109.247 17.9897 110.023 17.5096 110.844 17.116C111.203 16.9471 111.572 16.7989 111.948 16.672C112.543 16.4632 113.157 16.3105 113.78 16.216C113.991 16.175 114.205 16.1496 114.42 16.14C114.606 16.1181 114.794 16.1181 114.98 16.14Z" fill="#394449"/>
<path d="M121.424 50.676C121.424 50.676 121.424 50.648 121.484 50.596L121.672 50.376C121.84 50.18 122.092 49.896 122.376 49.5C122.734 49.0333 123.005 48.5063 123.176 47.944C123.274 47.5941 123.302 47.2287 123.26 46.868C123.203 46.4653 123.067 46.0778 122.86 45.728C122.428 44.98 121.72 44.328 121.072 43.52C119.615 41.6967 118.679 39.5126 118.364 37.2C118.235 35.9041 118.203 34.6005 118.268 33.3C118.332 32.0109 118.213 30.7192 117.912 29.464C117.592 28.3693 117.039 27.3568 116.291 26.4964C115.542 25.636 114.616 24.9481 113.576 24.48C112.714 24.0934 111.784 23.8788 110.84 23.848C109.082 23.777 107.35 24.2873 105.912 25.3L105.672 25.468C105.62 25.504 105.592 25.524 105.588 25.52C105.962 25.1752 106.38 24.8819 106.832 24.648C108.06 23.9889 109.439 23.6622 110.832 23.7C111.797 23.7237 112.748 23.9343 113.632 24.32C114.702 24.7925 115.656 25.493 116.427 26.3725C117.198 27.2521 117.768 28.2894 118.096 29.412C118.402 30.6854 118.525 31.9959 118.46 33.304C118.396 34.5951 118.426 35.8893 118.552 37.176C118.856 39.4554 119.771 41.6101 121.2 43.412C121.832 44.212 122.544 44.876 122.984 45.656C123.197 46.0248 123.333 46.433 123.384 46.856C123.424 47.2338 123.389 47.6158 123.28 47.98C123.096 48.5523 122.807 49.0853 122.428 49.552C122.199 49.8511 121.953 50.1369 121.692 50.408L121.484 50.616C121.467 50.6383 121.446 50.6585 121.424 50.676Z" fill="#394449"/>
<path d="M120.496 40.164C120.459 39.6924 120.385 39.2243 120.276 38.764C119.947 37.513 119.206 36.4095 118.172 35.632C117.412 35.0606 116.522 34.6881 115.582 34.5484C114.641 34.4086 113.681 34.5061 112.788 34.832C111.734 35.2268 110.819 35.9222 110.156 36.832C109.441 37.8034 109.056 38.9779 109.056 40.184C109.056 41.3901 109.441 42.5645 110.156 43.536C110.489 43.9979 110.894 44.4031 111.356 44.736C111.792 45.064 112.275 45.3243 112.788 45.508C113.536 45.7798 114.333 45.8925 115.127 45.8388C115.922 45.7851 116.696 45.5662 117.401 45.1961C118.105 44.826 118.725 44.3128 119.22 43.6895C119.716 43.0661 120.075 42.3463 120.276 41.576C120.385 41.1156 120.459 40.6476 120.496 40.176C120.502 40.2077 120.502 40.2403 120.496 40.272C120.496 40.344 120.496 40.436 120.496 40.544C120.496 40.694 120.484 40.8439 120.46 40.992C120.439 41.1958 120.403 41.3977 120.352 41.596C120.225 42.1449 120.015 42.671 119.728 43.156C119.35 43.8006 118.851 44.3668 118.26 44.824C117.484 45.4225 116.569 45.8155 115.601 45.9666C114.632 46.1176 113.642 46.0218 112.72 45.688C112.186 45.5002 111.684 45.2303 111.232 44.888C110.754 44.5402 110.334 44.119 109.988 43.64C109.243 42.6359 108.84 41.4186 108.84 40.168C108.84 38.9174 109.243 37.7 109.988 36.696C110.333 36.217 110.753 35.797 111.232 35.452C111.685 35.1116 112.186 34.8419 112.72 34.652C113.706 34.2968 114.77 34.2125 115.8 34.408C116.617 34.5675 117.39 34.8999 118.067 35.3828C118.745 35.8658 119.311 36.4881 119.728 37.208C120.015 37.6912 120.226 38.2162 120.352 38.764C120.403 38.9623 120.439 39.1642 120.46 39.368C120.484 39.5161 120.496 39.6659 120.496 39.816C120.496 39.924 120.496 40.016 120.496 40.092C120.5 40.1159 120.5 40.1401 120.496 40.164Z" fill="white"/>
<path d="M90.1481 63.764C90.0772 63.7289 90.0113 63.6845 89.9521 63.632C89.8281 63.54 89.6521 63.4 89.4201 63.232C88.7734 62.7141 88.1664 62.1485 87.6041 61.54C86.7363 60.6421 86.1424 59.5154 85.8921 58.292C85.8092 57.5698 85.7771 56.8427 85.7961 56.116C85.8098 55.3547 85.5922 54.6071 85.1721 53.972C84.7014 53.362 84.1781 52.7945 83.6081 52.276C83.0796 51.7642 82.6439 51.1646 82.3201 50.504C82.0336 49.9062 81.8239 49.2745 81.6961 48.624C81.5757 48.0602 81.5207 47.4844 81.5321 46.908C81.5321 46.376 81.6561 45.912 81.7041 45.504C81.751 45.1553 81.759 44.8025 81.7281 44.452C81.6601 43.876 81.5481 43.568 81.5681 43.56C81.6049 43.6301 81.6344 43.7038 81.6561 43.78C81.7228 43.996 81.7736 44.2166 81.8081 44.44C81.8511 44.7974 81.8511 45.1586 81.8081 45.516C81.7721 45.916 81.6761 46.396 81.6641 46.912C81.6702 48.1259 81.9433 49.3235 82.4641 50.42C82.7824 51.0589 83.2087 51.6381 83.7241 52.132C84.3085 52.6556 84.8441 53.2313 85.3241 53.852C85.5565 54.1861 85.7284 54.5584 85.8321 54.952C85.9238 55.3307 85.9735 55.7184 85.9801 56.108C85.9603 56.8264 85.9884 57.5453 86.0641 58.26C86.2962 59.4581 86.8603 60.567 87.6921 61.46C88.2413 62.073 88.8306 62.649 89.4561 63.184L90.0001 63.6C90.0547 63.6497 90.1042 63.7046 90.1481 63.764Z" fill="#394449"/>
<path d="M85.6001 54.448C85.6071 54.5024 85.6071 54.5575 85.6001 54.612C85.6001 54.72 85.6001 54.876 85.5681 55.08C85.5005 55.6549 85.3663 56.22 85.1681 56.764C84.5361 58.5897 83.2812 60.1344 81.6237 61.127C79.9661 62.1196 78.012 62.4966 76.1041 62.192C75.5327 62.1056 74.973 61.954 74.4361 61.74C74.2441 61.668 74.1042 61.588 74.0082 61.544C73.9122 61.5 73.8642 61.468 73.8682 61.46C74.599 61.7298 75.3546 61.9267 76.1241 62.048C76.9605 62.1559 77.8081 62.1411 78.6402 62.004C80.7007 61.6882 82.5557 60.5784 83.8081 58.912C84.321 58.2436 84.7334 57.5037 85.0321 56.716C85.293 55.9797 85.4832 55.2203 85.6001 54.448Z" fill="#394449"/>
<path d="M84.06 52.568C84.0433 52.7546 84.0044 52.9386 83.944 53.116C83.8022 53.6064 83.6133 54.0819 83.38 54.536C82.6015 56.0436 81.4222 57.3073 79.972 58.188C78.5182 59.0588 76.8658 59.5435 75.172 59.596C74.6626 59.6116 74.1529 59.5848 73.648 59.516C73.4617 59.4991 73.2779 59.4616 73.1 59.404C73.7881 59.4535 74.4783 59.4682 75.168 59.448C76.8282 59.3562 78.4413 58.862 79.868 58.008C81.2868 57.1433 82.4538 55.9213 83.252 54.464C83.5625 53.8504 83.8324 53.217 84.06 52.568Z" fill="#394449"/>
<path d="M72.3601 48.584C72.4699 48.4984 72.5911 48.4284 72.7201 48.376C72.8632 48.2988 73.0115 48.232 73.1641 48.176C73.3638 48.0923 73.5681 48.0202 73.7761 47.96C74.3147 47.7983 74.8681 47.6911 75.4281 47.64C76.1143 47.5801 76.8048 47.5935 77.4881 47.68C78.1704 47.7763 78.8408 47.9438 79.4881 48.18C80.0138 48.3818 80.5177 48.6365 80.9921 48.94C81.1743 49.0545 81.3493 49.1801 81.5161 49.316C81.6486 49.4109 81.773 49.5166 81.8881 49.632C81.9947 49.7214 82.0901 49.8235 82.1721 49.936C82.1441 49.968 81.7241 49.536 80.9121 49.064C80.4373 48.7842 79.9379 48.5486 79.4201 48.36C78.7829 48.142 78.1267 47.984 77.4601 47.888C76.7968 47.8046 76.1272 47.7846 75.4601 47.828C74.9102 47.8707 74.3653 47.9631 73.8321 48.104C72.9041 48.344 72.4001 48.62 72.3601 48.584Z" fill="#394449"/>
<path d="M81.5681 47.844C81.5321 47.888 79.0081 45.744 75.9361 43.044C72.8641 40.344 70.4001 38.148 70.4361 38.104C70.4721 38.06 72.9961 40.208 76.0721 42.904C79.1481 45.6 81.6001 47.804 81.5681 47.844Z" fill="#C67875"/>
<path d="M93.092 43.464C93.283 43.0894 93.5667 42.7699 93.916 42.536C94.2209 42.2454 94.5957 42.0387 95.004 41.936C94.7058 42.2157 94.3847 42.4699 94.044 42.696C93.747 42.9761 93.4287 43.2329 93.092 43.464Z" fill="white"/>
<path d="M81.8601 45.716C81.8402 45.6911 81.8228 45.6643 81.8081 45.636C81.7721 45.568 81.7281 45.488 81.6721 45.392C81.5169 45.0684 81.4117 44.7231 81.3601 44.368C81.2123 43.0376 81.5913 41.7023 82.4161 40.648C82.6765 40.2944 82.9757 39.9711 83.3081 39.684C83.6724 39.3788 84.0664 39.1108 84.4841 38.884C85.4112 38.3983 86.4064 38.0558 87.4361 37.868C89.6001 37.416 92.0361 37.524 94.5161 37.156C95.7296 36.9955 96.9074 36.6317 98.0001 36.08C98.9984 35.5373 99.901 34.8346 100.672 34C101.981 32.5783 103.029 30.9373 103.768 29.152C104.424 27.636 104.836 26.352 105.136 25.488L105.476 24.476L105.568 24.216C105.577 24.1857 105.59 24.1562 105.604 24.128C105.604 24.128 105.604 24.16 105.604 24.22L105.532 24.488L105.2 25.528C104.83 26.7822 104.393 28.016 103.892 29.224C103.164 31.0369 102.117 32.7047 100.8 34.148C100.014 34.9978 99.0918 35.7114 98.0721 36.26C96.9645 36.8258 95.7688 37.1991 94.5361 37.364C92.0241 37.74 89.6001 37.62 87.4601 38.06C85.3201 38.5 83.4841 39.392 82.5201 40.736C81.7109 41.753 81.3217 43.0411 81.4321 44.336C81.5011 44.8157 81.6455 45.2814 81.8601 45.716Z" fill="#FAFAFA"/>
<path d="M84.4 61.6C84.3163 62.1533 84.1547 62.692 83.92 63.2C83.6498 63.8109 83.2986 64.3827 82.876 64.9C82.3155 65.5912 81.6287 66.1695 80.852 66.604C79.9009 67.1195 78.8379 67.3942 77.756 67.404C76.5072 67.4327 75.2802 67.0736 74.244 66.376C73.1043 65.5873 72.2798 64.4214 71.916 63.084C71.7217 62.3796 71.6808 61.6416 71.796 60.92C71.9227 60.1773 72.2079 59.4706 72.632 58.848C73.3236 57.7986 74.3845 57.0476 75.604 56.744V56.944C74.3668 56.7526 73.1915 56.2746 72.172 55.548C71.2269 54.8812 70.4737 53.9777 69.988 52.928C69.5606 51.9846 69.3777 50.9487 69.456 49.916C69.5221 49.0236 69.8214 48.1643 70.324 47.424C70.7468 46.8232 71.2921 46.3188 71.924 45.944C72.3935 45.6667 72.9059 45.4694 73.44 45.36C73.7744 45.2936 74.1155 45.2681 74.456 45.284L74.716 45.312C74.7452 45.3076 74.7749 45.3076 74.804 45.312C74.3508 45.2885 73.8964 45.3235 73.452 45.416C72.9315 45.535 72.4342 45.7391 71.98 46.02C71.3739 46.3958 70.8534 46.8945 70.452 47.484C69.9712 48.2078 69.6885 49.0449 69.632 49.912C69.5652 50.916 69.7494 51.9209 70.168 52.836C70.6455 53.8527 71.3805 54.7269 72.3 55.372C73.2986 56.0751 74.4455 56.5391 75.652 56.728L76.168 56.808L75.66 56.928C74.4901 57.2209 73.4734 57.9435 72.812 58.952C72.4044 59.5532 72.1315 60.2355 72.012 60.952C71.9024 61.6455 71.9406 62.3543 72.124 63.032C72.4709 64.3301 73.2658 65.4636 74.368 66.232C75.3703 66.9111 76.5576 67.2645 77.768 67.244C78.8246 67.2402 79.8641 66.9779 80.796 66.48C81.5602 66.0628 82.2388 65.505 82.796 64.836C83.2206 64.3307 83.5782 63.7728 83.86 63.176C84.0349 62.7974 84.1832 62.4071 84.304 62.008C84.34 61.88 84.368 61.776 84.388 61.692L84.4 61.6Z" fill="#263238"/>
<path d="M82.044 44.3C82.0101 44.29 81.9777 44.2752 81.948 44.256L81.668 44.108C81.318 43.9075 80.9848 43.6787 80.672 43.424C79.5099 42.4749 78.6231 41.2318 78.104 39.824C77.5015 38.1552 77.4483 36.3376 77.952 34.6364C78.4557 32.9353 79.4901 31.4397 80.904 30.368C82.0354 29.5342 83.3077 28.9109 84.66 28.528C86.0121 28.1462 87.399 27.901 88.8 27.796C90.144 27.668 91.44 27.608 92.672 27.524C93.8381 27.4506 94.9997 27.3171 96.152 27.124C97.1528 26.952 98.1346 26.6841 99.084 26.324C100.462 25.8155 101.719 25.0238 102.772 24C103.049 23.7121 103.307 23.4061 103.544 23.084L103.728 22.832C103.747 22.8012 103.77 22.773 103.796 22.748C103.533 23.2249 103.207 23.6648 102.828 24.056C101.783 25.1158 100.519 25.9349 99.124 26.456C98.168 26.8276 97.178 27.105 96.168 27.284C95.0106 27.4789 93.8436 27.6124 92.672 27.684C90.212 27.88 87.472 27.9 84.732 28.712C83.4046 29.0889 82.1546 29.6984 81.04 30.512C79.6542 31.5584 78.6364 33.0178 78.1332 34.6798C77.63 36.3418 77.6674 38.1206 78.24 39.76C78.7418 41.145 79.5967 42.375 80.72 43.328C81.0248 43.5887 81.3484 43.8267 81.688 44.04L81.952 44.204C81.9869 44.2317 82.0178 44.264 82.044 44.3Z" fill="#263238"/>
<path d="M126.62 38.4C126.574 38.4547 126.517 38.4994 126.453 38.531C126.389 38.5627 126.319 38.5807 126.248 38.584C126.04 38.588 125.836 38.5296 125.662 38.4162C125.488 38.3027 125.352 38.1396 125.272 37.948C125.21 37.8089 125.183 37.6569 125.193 37.5051C125.203 37.3533 125.249 37.2061 125.328 37.076C125.513 36.7685 125.794 36.5308 126.128 36.4C126.536 36.2526 126.974 36.2119 127.402 36.2819C127.83 36.352 128.233 36.5303 128.572 36.8C128.981 37.0952 129.296 37.5022 129.48 37.972C129.674 38.4826 129.713 39.0393 129.592 39.572C129.469 40.1494 129.157 40.6691 128.704 41.048C128.225 41.4452 127.639 41.6928 127.02 41.76C126.36 41.8079 125.697 41.707 125.081 41.4647C124.465 41.2224 123.911 40.8449 123.46 40.36C122.963 39.8686 122.575 39.2786 122.32 38.628C122.06 37.9518 121.991 37.2169 122.12 36.504C122.258 35.8069 122.476 35.1278 122.768 34.48C123.036 33.84 123.284 33.208 123.492 32.576C123.908 31.3618 124.177 30.1022 124.292 28.824C124.399 27.6708 124.329 26.5079 124.084 25.376C123.866 24.3847 123.48 23.4378 122.944 22.576C122.172 21.3224 121.063 20.3107 119.744 19.656C119.384 19.4925 119.01 19.3587 118.628 19.256L118.324 19.18C118.289 19.173 118.255 19.1609 118.224 19.144H118.328L118.636 19.2C119.029 19.2893 119.412 19.4166 119.78 19.58C121.129 20.2205 122.265 21.2338 123.056 22.5C123.613 23.3582 124.018 24.3051 124.256 25.3C124.514 26.449 124.592 27.631 124.488 28.804C124.376 30.0983 124.107 31.3742 123.688 32.604C123.48 33.244 123.228 33.884 122.96 34.52C122.676 35.1613 122.464 35.8321 122.328 36.52C122.209 37.1917 122.275 37.8833 122.52 38.52C122.762 39.1459 123.134 39.7132 123.612 40.184C124.04 40.6482 124.566 41.0109 125.153 41.2455C125.739 41.4801 126.37 41.5807 127 41.54C127.587 41.4801 128.143 41.2492 128.6 40.876C129.026 40.5255 129.322 40.0424 129.44 39.504C129.557 39.0018 129.525 38.4763 129.348 37.992C129.176 37.5478 128.882 37.1611 128.5 36.876C128.181 36.617 127.801 36.4442 127.396 36.3742C126.992 36.3041 126.576 36.3392 126.188 36.476C125.875 36.5917 125.609 36.8084 125.432 37.092C125.356 37.2094 125.31 37.3436 125.297 37.4831C125.284 37.6225 125.306 37.7628 125.36 37.892C125.433 38.0726 125.557 38.2279 125.717 38.3388C125.877 38.4497 126.066 38.5113 126.26 38.516C126.388 38.5101 126.513 38.47 126.62 38.4Z" fill="#263238"/>
<g opacity="0.2">
<path opacity="0.2" d="M124.068 128.928C126.012 128.38 128.028 130.128 130 129.676C131.2 129.396 132.104 128.324 132.648 127.2C133.192 126.076 133.484 124.836 134.06 123.724C134.636 122.612 135.596 121.592 136.836 121.42C137.972 121.268 139.32 121.8 140.164 121.02C140.816 120.42 140.728 119.308 140.208 118.592C139.688 117.876 138.864 117.456 138.068 117.064C137.195 116.587 136.267 116.219 135.304 115.968C134.332 115.721 133.302 115.84 132.412 116.304C130.748 117.272 130.412 119.468 129.928 121.332C129.633 122.643 129.078 123.882 128.296 124.976C127.502 126.073 126.326 126.832 125 127.104C124.489 127.123 123.989 127.251 123.532 127.48C123.112 127.768 122.948 128.488 123.384 128.756" fill="black"/>
</g>
<path d="M113.936 121.74L121.224 119.2L127.756 108.988C128.075 108.49 128.492 108.062 128.981 107.73C129.471 107.399 130.023 107.171 130.604 107.06L142.32 104.848C142.469 105.294 142.449 105.78 142.264 106.213C142.079 106.645 141.742 106.995 141.316 107.196C139.752 108.088 132.716 109.728 132.716 109.728L143.552 109.544C143.552 109.544 143.884 111.108 142.656 111.668C141.428 112.228 133.708 112.508 133.708 112.508L143.6 113.916C143.6 113.916 143.656 115.488 141.396 115.516C139.171 115.496 136.948 115.362 134.736 115.116C134.644 115.102 134.551 115.125 134.476 115.18C134.401 115.234 134.351 115.316 134.336 115.408C134.322 115.496 134.341 115.587 134.391 115.661C134.441 115.735 134.517 115.788 134.604 115.808L141.176 117.36C141.366 117.402 141.536 117.506 141.66 117.655C141.785 117.804 141.856 117.99 141.864 118.184C141.872 118.378 141.815 118.569 141.703 118.727C141.591 118.886 141.43 119.003 141.244 119.06C141.124 119.09 140.999 119.099 140.876 119.084C139.76 118.972 133.068 118.124 133.068 118.124C133.068 118.124 130.708 126.396 129.18 127.064C127.652 127.732 124.448 127.916 124.448 127.916L117.648 130.608L113.936 121.74Z" fill="#B78876"/>
<path d="M142.8 109.512C142.613 109.551 142.423 109.57 142.232 109.568L140.68 109.644C139.372 109.7 137.56 109.764 135.564 109.816L132.744 109.888C131.985 109.856 131.227 109.965 130.508 110.208C130.035 110.394 129.633 110.726 129.36 111.156C129.273 111.321 129.196 111.492 129.132 111.668C129.124 111.619 129.124 111.569 129.132 111.52C129.163 111.381 129.211 111.247 129.276 111.12C129.537 110.652 129.946 110.284 130.44 110.076C131.172 109.805 131.948 109.677 132.728 109.7L135.528 109.612C137.528 109.56 139.34 109.52 140.648 109.5H142.2C142.4 109.487 142.601 109.491 142.8 109.512Z" fill="#AA6550"/>
<path d="M142.964 113.944C142.789 113.951 142.613 113.939 142.44 113.908L141.024 113.728C139.824 113.572 138.176 113.328 136.356 113.064C135.448 112.936 134.58 112.772 133.796 112.704C133.108 112.621 132.412 112.747 131.796 113.064C131.386 113.292 131.032 113.609 130.76 113.992C130.568 114.264 130.492 114.436 130.476 114.428C130.482 114.382 130.496 114.338 130.516 114.296C130.565 114.174 130.624 114.056 130.692 113.944C130.949 113.529 131.304 113.184 131.724 112.936C132.359 112.582 133.089 112.433 133.812 112.512C134.612 112.572 135.48 112.732 136.392 112.856C138.212 113.128 139.86 113.388 141.048 113.584L142.456 113.828C142.629 113.85 142.799 113.889 142.964 113.944Z" fill="#AA6550"/>
<path d="M137.464 116.46C137.077 116.405 136.695 116.322 136.32 116.212C135.616 116.04 134.648 115.784 133.576 115.564C133.321 115.504 133.061 115.465 132.8 115.448C132.566 115.457 132.338 115.525 132.136 115.644C131.778 115.842 131.476 116.128 131.26 116.476C131.081 116.815 130.963 117.184 130.912 117.564C130.879 117.461 130.87 117.351 130.888 117.244C130.909 116.95 130.991 116.664 131.128 116.404C131.343 116.018 131.658 115.698 132.04 115.476C132.27 115.339 132.529 115.259 132.796 115.244C133.072 115.259 133.346 115.296 133.616 115.356C134.704 115.584 135.664 115.86 136.356 116.068C136.738 116.162 137.109 116.293 137.464 116.46Z" fill="#AA6550"/>
<path d="M59.8361 127.232L81.6961 124.544L120.036 118.312L124.984 130.748C110.584 135.74 95.8081 140.244 81.3121 144.204C80.1273 144.44 78.9197 144.542 77.7121 144.508C72.8721 144.528 60.9361 142.584 59.8361 127.232Z" fill="#C67875"/>
<path d="M124.984 130.748C124.947 130.677 124.913 130.603 124.884 130.528C124.816 130.372 124.728 130.156 124.608 129.876C124.372 129.292 124.028 128.452 123.592 127.38L119.956 118.34L120.048 118.392L101.42 121.504C97.0201 122.26 92.8001 122.752 88.9761 123.26C87.0601 123.512 85.2441 123.764 83.5521 124.06C82.7041 124.196 81.8881 124.329 81.1041 124.46C80.3528 124.58 79.6089 124.743 78.8761 124.948C76.6687 125.644 74.8092 127.154 73.6761 129.172C73.3657 129.715 73.1098 130.287 72.9121 130.88C72.8441 131.084 72.8001 131.244 72.7721 131.348C72.7583 131.403 72.7395 131.456 72.7161 131.508C72.7533 131.291 72.8055 131.078 72.8721 130.868C73.0543 130.265 73.2996 129.683 73.6041 129.132C74.085 128.256 74.7036 127.463 75.4361 126.784C76.4165 125.888 77.579 125.214 78.8441 124.808C79.5822 124.598 80.3313 124.428 81.0881 124.3C81.8881 124.156 82.6881 124.008 83.5361 123.868C85.2321 123.588 87.0481 123.324 88.9601 123.068C92.7881 122.552 97.0041 122.056 101.396 121.296L120.032 118.228H120.1L120.124 118.292C121.612 122.068 122.836 125.18 123.692 127.356L124.668 129.868C124.776 130.152 124.856 130.372 124.92 130.528C124.984 130.684 124.984 130.748 124.984 130.748Z" fill="#263238"/>
<path d="M71.6 143.848C71.6597 143.854 71.7186 143.866 71.776 143.884L72.284 144.008C72.732 144.104 73.392 144.256 74.256 144.36C76.6969 144.661 79.1712 144.542 81.572 144.008C82.332 143.848 83.116 143.632 83.936 143.4L86.488 142.68L92.088 141.08C96.044 139.928 100.384 138.636 104.924 137.224C112.524 134.864 119.508 132.552 124.924 130.684L124.876 130.792C123.38 126.992 122.152 123.884 121.3 121.712C120.88 120.636 120.556 119.792 120.328 119.208C120.22 118.928 120.14 118.712 120.08 118.552C120.02 118.392 120.004 118.328 120.004 118.328C120.004 118.328 120.04 118.4 120.104 118.544C120.168 118.688 120.256 118.916 120.372 119.192L121.384 121.676L125.028 130.732L125.06 130.812L124.98 130.84C119.556 132.736 112.58 135.06 104.98 137.424C100.44 138.836 96.096 140.124 92.136 141.268L86.504 142.868L83.948 143.572C83.148 143.8 82.348 144.016 81.576 144.172C79.1582 144.696 76.6677 144.794 74.216 144.464C73.3262 144.343 72.4501 144.137 71.6 143.848Z" fill="#263238"/>
<path d="M80.0721 124.544C79.8929 124.591 79.7092 124.619 79.5241 124.628L78.0241 124.776L73.0801 125.26L68.1361 125.788L66.6361 125.944C66.4539 125.975 66.2687 125.986 66.0841 125.976C66.262 125.924 66.444 125.886 66.6281 125.864C66.9801 125.808 67.4881 125.732 68.1201 125.644C69.3801 125.468 71.1241 125.244 73.0561 125.056C74.9881 124.868 76.7441 124.716 78.0121 124.632C78.6481 124.588 79.1641 124.56 79.5201 124.544C79.7038 124.528 79.8884 124.528 80.0721 124.544Z" fill="#263238"/>
<path d="M158.232 52.24C157.832 49.068 155.156 46.112 151.96 46.112C150.076 46.112 148.28 47.096 146.992 48.476C146.534 48.9399 146.113 49.4388 145.732 49.968C145.461 49.3742 145.146 48.8019 144.788 48.256C143.796 46.656 142.232 45.332 140.388 44.96C137.252 44.336 134.044 46.704 133.032 49.736C132.02 52.768 132.864 56.168 134.524 58.896C136.184 61.624 139.044 65.196 144.312 66.964C147.94 66.5 152.804 63.28 154.968 60.928C157.132 58.576 158.624 55.412 158.232 52.24Z" fill="#C67875"/>
<path d="M157.08 57.932H156.976L156.668 57.912L155.468 57.812L151.124 57.412L151.2 57.364L149.392 62.084L149.28 62.368L149.208 62.072C148.66 59.78 148.04 57.216 147.388 54.512L146.8 52.052L146.984 52.092L143.668 56.652L143.636 56.692H143.6L135.964 55.892L133.804 55.652L133.232 55.58L133.036 55.544C133.103 55.5378 133.169 55.5378 133.236 55.544L133.808 55.588L135.976 55.776L143.616 56.496L143.532 56.536L146.832 51.964L146.964 51.784L147.016 52C147.208 52.8 147.416 53.628 147.608 54.468C148.252 57.172 148.864 59.74 149.412 62.032H149.228L151.076 57.324L151.096 57.272H151.152L155.492 57.736L156.672 57.876L156.976 57.916L157.08 57.932Z" fill="#FAFAFA"/>
</svg>
