<svg width="24" height="24" viewBox="0 0 24 24" fill="none" xmlns="http://www.w3.org/2000/svg">
<path d="M12 0.923065C5.88103 0.923065 0.923096 5.881 0.923096 12C0.923096 18.119 5.88103 23.0769 12 23.0769C18.119 23.0769 23.0769 18.119 23.0769 12C23.0769 5.881 18.119 0.923065 12 0.923065ZM12 19.0709C11.1346 19.0709 10.5433 18.4038 10.5433 17.5385C10.5433 16.6478 11.1599 16.006 12 16.006C12.8906 16.006 13.4567 16.6478 13.4567 17.5385C13.4567 18.4038 12.8906 19.0709 12 19.0709ZM12.5733 13.2187C12.3534 13.9723 11.6575 13.9832 11.4267 13.2187C11.1599 12.3353 10.2116 8.98557 10.2116 6.81129C10.2116 3.94109 13.8029 3.92667 13.8029 6.81129C13.8029 8.99999 12.8041 12.4363 12.5733 13.2187Z" fill="#394449"/>
</svg>
