<svg width="24" height="24" viewBox="0 0 24 24" fill="none" xmlns="http://www.w3.org/2000/svg">
<path d="M12 0C5.37109 0 0 5.37109 0 12C0 18.6289 5.37109 24 12 24C18.6289 24 24 18.6289 24 12C24 5.37109 18.6289 0 12 0ZM12 5C14.3945 5 16 6.60547 16 9H14.75C14.75 7.48047 13.5195 6.25 12 6.25C10.4805 6.25 9.25 7.48047 9.25 9H8C8 6.60547 9.60547 5 12 5ZM8.5 10H15.5C16.3281 10 17 10.6719 17 11.5V16.5C17 17.3281 16.3281 18 15.5 18H8.5C7.67188 18 7 17.3281 7 16.5V11.5C7 10.6719 7.67188 10 8.5 10ZM12 11.9375C11.3359 11.9375 10.8125 12.457 10.8125 13.0938C10.8125 13.5195 11.0469 13.8945 11.4062 14.0938V15.4062C11.4062 15.7266 11.668 16 12 16C12.332 16 12.5938 15.7539 12.5938 15.4375V14.0938C12.9531 13.8945 13.2188 13.5508 13.2188 13.125C13.2188 12.4844 12.6641 11.9375 12 11.9375Z" fill="#394449"/>
</svg>
