<svg width="12" height="17" viewBox="0 0 12 17" fill="none" xmlns="http://www.w3.org/2000/svg">
<path d="M5.99998 0.600006C5.90594 0.600138 5.81324 0.622373 5.72937 0.664917C5.64551 0.707461 5.57282 0.769123 5.51716 0.844928C5.51111 0.852596 5.50525 0.860411 5.49959 0.868365C4.08291 2.69135 0.599976 8.41408 0.599976 11.4C0.599976 14.3826 3.01738 16.8 5.99998 16.8C8.98258 16.8 11.4 14.3826 11.4 11.4C11.4 8.41744 7.92478 2.70627 6.50505 0.876569C6.50489 0.876361 6.50522 0.875605 6.50505 0.875397C6.49795 0.86501 6.49053 0.854848 6.48279 0.844928C6.42714 0.769123 6.35444 0.707461 6.27058 0.664917C6.18671 0.622373 6.09402 0.600138 5.99998 0.600006Z" fill="#C26C69"/>
</svg>
