<svg width="22" height="22" viewBox="0 0 22 22" fill="none" xmlns="http://www.w3.org/2000/svg">
<path d="M11 0.880005C5.41609 0.880005 0.880005 5.41609 0.880005 11C0.880005 16.326 5.00778 20.6956 10.2343 21.0882C10.2446 21.089 10.2549 21.09 10.2652 21.0908C10.5083 21.1083 10.7526 21.12 11 21.12C11.2474 21.12 11.4917 21.1083 11.7348 21.0908C11.7451 21.09 11.7554 21.089 11.7657 21.0882C16.9922 20.6956 21.12 16.326 21.12 11C21.12 5.41609 16.5839 0.880005 11 0.880005ZM11 1.76C16.1083 1.76 20.24 5.89168 20.24 11C20.24 13.5287 19.225 15.8158 17.5828 17.4831C16.8287 17.0163 15.767 16.9049 14.9781 16.6427C14.0875 16.347 13.0288 15.8954 12.76 15.4C13.8239 15.2654 16.28 14.8112 16.28 13.8102C16.28 13.6861 16.2276 13.5681 16.1356 13.4845C15.8325 13.2099 15.85 11.7781 15.8641 10.6279C15.8909 8.44285 15.9216 5.96632 14.6412 4.7154C14.1387 4.22392 13.4783 3.97384 12.6784 3.97032C12.2709 3.68916 11.6852 3.52946 11.0155 3.52946H11.0086C6.4216 3.85946 6.31083 8.14064 6.23735 10.9734C6.20963 12.039 6.17888 13.2464 5.86868 13.5214C5.77452 13.605 5.72001 13.7247 5.72001 13.8506C5.72001 14.8058 7.48704 15.1756 9.24 15.4C8.99185 15.9139 7.49673 16.4248 6.6 16.72C5.82221 16.9762 5.08235 17.0334 4.41204 17.478C2.77285 15.811 1.76 13.5261 1.76 11C1.76 5.89168 5.89168 1.76 11 1.76Z" fill="#C26C69"/>
</svg>
