<svg width="22" height="22" viewBox="0 0 22 22" fill="none" xmlns="http://www.w3.org/2000/svg">
<path d="M5.71992 0.915312C3.07448 0.915312 0.919922 3.06987 0.919922 5.71531V16.2753C0.919922 18.9208 3.07448 21.0753 5.71992 21.0753H16.2799C18.9254 21.0753 21.0799 18.9208 21.0799 16.2753V5.71531C21.0799 3.06987 18.9254 0.915312 16.2799 0.915312H5.71992ZM10.9999 2.84C15.5071 2.84 19.1599 6.4928 19.1599 11C19.1599 15.5072 15.5071 19.16 10.9999 19.16C6.49272 19.16 2.83992 15.5072 2.83992 11C2.83992 6.4928 6.49272 2.84 10.9999 2.84ZM10.9999 4.28C10.4719 4.28 9.95865 4.34196 9.46617 4.45812C8.84649 4.60452 8.55214 5.32035 8.87086 5.87187L9.25617 6.53844C10.568 6.0282 12.09 6.08616 13.4009 6.84312C14.7122 7.60008 15.5188 8.88992 15.7315 10.28H16.5096C17.1408 10.28 17.6178 9.67543 17.4368 9.07063C16.6074 6.30007 14.0398 4.28 10.9999 4.28ZM6.69586 6.11562C6.48083 6.13562 6.27131 6.22916 6.10805 6.4025C4.97573 7.60394 4.27992 9.2192 4.27992 11C4.27992 12.7808 4.97573 14.3961 6.10805 15.5975C6.54341 16.0593 7.30858 15.953 7.62586 15.4034L8.00836 14.7416C6.9106 13.8608 6.19992 12.5139 6.19992 11C6.19992 9.4856 6.91341 8.14249 8.01117 7.26312L7.6268 6.59656C7.4282 6.25306 7.05423 6.0823 6.69586 6.11562ZM10.9305 7.16844C10.5252 7.17807 10.1243 7.25101 9.74273 7.38312L11.1387 9.8C11.31 10.0971 11.627 10.28 11.9702 10.28H14.763C14.56 9.2216 13.9226 8.25357 12.9199 7.67469C12.2935 7.31319 11.6061 7.15238 10.9305 7.16844ZM8.49492 8.10125C7.67988 8.80637 7.15992 9.84224 7.15992 11C7.15992 12.1573 7.68178 13.1918 8.49586 13.8969L9.8918 11.48C10.0632 11.1829 10.0632 10.8171 9.8918 10.52L8.49492 8.10125ZM11.9693 11.72C11.6266 11.72 11.3091 11.9029 11.1377 12.2L9.7418 14.6188C10.7604 14.972 11.9172 14.9042 12.9199 14.3253C13.9222 13.7469 14.5577 12.7774 14.7612 11.72H11.9693ZM15.7352 11.72C15.5212 13.111 14.7108 14.3999 13.3999 15.1569C12.0881 15.9143 10.5675 15.9676 9.25711 15.4569L8.87086 16.1281C8.55262 16.6796 8.84649 17.3955 9.46617 17.5419C9.95865 17.658 10.4719 17.72 10.9999 17.72C14.0398 17.72 16.6074 15.6999 17.4368 12.9294C17.6178 12.3246 17.1413 11.72 16.5096 11.72H15.7352Z" fill="#394449"/>
</svg>
