<svg width="16" height="20" viewBox="0 0 16 20" fill="none" xmlns="http://www.w3.org/2000/svg">
<path d="M2.90933 0.760925C2.7502 0.760925 2.59758 0.834675 2.48506 0.965951C2.37254 1.09723 2.30933 1.27527 2.30933 1.46093C2.30933 1.64658 2.37254 1.82462 2.48506 1.9559C2.59758 2.08718 2.7502 2.16093 2.90933 2.16093C3.06846 2.16093 3.22107 2.08718 3.33359 1.9559C3.44611 1.82462 3.50933 1.64658 3.50933 1.46093C3.50933 1.27527 3.44611 1.09723 3.33359 0.965951C3.22107 0.834675 3.06846 0.760925 2.90933 0.760925ZM13.0906 0.760925C12.9314 0.760925 12.7788 0.834675 12.6663 0.965951C12.5538 1.09723 12.4906 1.27527 12.4906 1.46093C12.4906 1.64658 12.5538 1.82462 12.6663 1.9559C12.7788 2.08718 12.9314 2.16093 13.0906 2.16093C13.2497 2.16093 13.4023 2.08718 13.5148 1.9559C13.6274 1.82462 13.6906 1.64658 13.6906 1.46093C13.6906 1.27527 13.6274 1.09723 13.5148 0.965951C13.4023 0.834675 13.2497 0.760925 13.0906 0.760925ZM7.99995 1.09999C5.01735 1.09999 2.59995 3.92029 2.59995 7.39999C2.59995 10.9 4.99995 12.3 6.19995 15.1H9.79995C11 12.3 13.4 10.9 13.4 7.39999C13.4 3.92029 10.9826 1.09999 7.99995 1.09999ZM7.78198 3.58417H8.21792C8.45852 3.58417 8.65386 3.81136 8.65386 4.09276V4.45643C9.12006 4.59713 9.5374 4.87457 9.8644 5.26307L10.1281 5.08534C10.3369 4.94464 10.6028 5.02904 10.7234 5.27264L10.9414 5.71288C11.062 5.95648 10.9908 6.26671 10.782 6.40741L10.5113 6.59061C10.5725 6.84961 10.6167 7.11719 10.6167 7.39999C10.6167 7.68279 10.5725 7.95103 10.5113 8.21073L10.782 8.39257C10.9908 8.53327 11.062 8.8435 10.9414 9.0871L10.7234 9.5287C10.6028 9.7723 10.3369 9.85534 10.1281 9.71464L9.8644 9.53827C9.5374 9.92677 9.11946 10.2042 8.65386 10.3449V10.7072C8.65386 10.9879 8.45912 11.2158 8.21792 11.2158H7.78198C7.54138 11.2158 7.34487 10.9886 7.34487 10.7072V10.3449C6.87867 10.2042 6.46133 9.92677 6.13433 9.53827L5.87183 9.71464C5.66303 9.85534 5.39711 9.7723 5.27651 9.5287L5.05737 9.0871C4.93677 8.8435 5.00795 8.53327 5.21675 8.39257L5.48745 8.21073C5.42565 7.95103 5.38315 7.68279 5.38315 7.39999C5.38315 7.11719 5.42625 6.84895 5.48745 6.58925L5.21675 6.40741C5.00795 6.26671 4.93677 5.95648 5.05737 5.71288L5.27651 5.27128C5.39711 5.02768 5.66303 4.94464 5.87183 5.08534L6.13433 5.26171C6.46133 4.87321 6.87927 4.59577 7.34487 4.45507V4.09276C7.34487 3.81206 7.54078 3.58417 7.78198 3.58417ZM7.99995 5.87421C7.27755 5.87421 6.69214 6.55719 6.69214 7.39999C6.69214 8.24279 7.27755 8.92577 7.99995 8.92577C8.72235 8.92577 9.30776 8.24279 9.30776 7.39999C9.30776 6.55719 8.72235 5.87421 7.99995 5.87421ZM0.799951 6.69999C0.640821 6.69999 0.488209 6.77374 0.375687 6.90501C0.263165 7.03629 0.199951 7.21434 0.199951 7.39999C0.199951 7.58564 0.263165 7.76369 0.375687 7.89496C0.488209 8.02624 0.640821 8.09999 0.799951 8.09999C0.959081 8.09999 1.11169 8.02624 1.22422 7.89496C1.33674 7.76369 1.39995 7.58564 1.39995 7.39999C1.39995 7.21434 1.33674 7.03629 1.22422 6.90501C1.11169 6.77374 0.959081 6.69999 0.799951 6.69999ZM15.2 6.69999C15.0408 6.69999 14.8882 6.77374 14.7757 6.90501C14.6632 7.03629 14.6 7.21434 14.6 7.39999C14.6 7.58564 14.6632 7.76369 14.7757 7.89496C14.8882 8.02624 15.0408 8.09999 15.2 8.09999C15.3591 8.09999 15.5117 8.02624 15.6242 7.89496C15.7367 7.76369 15.8 7.58564 15.8 7.39999C15.8 7.21434 15.7367 7.03629 15.6242 6.90501C15.5117 6.77374 15.3591 6.69999 15.2 6.69999ZM2.90933 12.6391C2.7502 12.6391 2.59758 12.7128 2.48506 12.8441C2.37254 12.9754 2.30933 13.1534 2.30933 13.3391C2.30933 13.5247 2.37254 13.7028 2.48506 13.834C2.59758 13.9653 2.7502 14.0391 2.90933 14.0391C3.06846 14.0391 3.22107 13.9653 3.33359 13.834C3.44611 13.7028 3.50933 13.5247 3.50933 13.3391C3.50933 13.1534 3.44611 12.9754 3.33359 12.8441C3.22107 12.7128 3.06846 12.6391 2.90933 12.6391ZM13.0906 12.6391C12.9314 12.6391 12.7788 12.7128 12.6663 12.8441C12.5538 12.9754 12.4906 13.1534 12.4906 13.3391C12.4906 13.5247 12.5538 13.7028 12.6663 13.834C12.7788 13.9653 12.9314 14.0391 13.0906 14.0391C13.2497 14.0391 13.4023 13.9653 13.5148 13.834C13.6274 13.7028 13.6906 13.5247 13.6906 13.3391C13.6906 13.1534 13.6274 12.9754 13.5148 12.8441C13.4023 12.7128 13.2497 12.6391 13.0906 12.6391ZM6.19995 16.5V17.2C6.19995 17.9735 6.73695 18.6 7.39995 18.6C7.39995 18.7856 7.46316 18.9637 7.57569 19.095C7.68821 19.2262 7.84082 19.3 7.99995 19.3C8.15908 19.3 8.31169 19.2262 8.42421 19.095C8.53674 18.9637 8.59995 18.7856 8.59995 18.6C9.26295 18.6 9.79995 17.9735 9.79995 17.2V16.5H6.19995Z" fill="#C26C69"/>
</svg>
